<svg width="132" height="16" viewBox="0 0 132 16" fill="none" xmlns="http://www.w3.org/2000/svg">
<path d="M1.95312 0.772727L2.7832 0L8.2845 5.12121C8.50152 5.32323 8.60731 5.56061 8.60189 5.83333C8.59646 6.10606 8.49067 6.33838 8.2845 6.5303L5.45247 9.16667C5.23546 9.36869 4.98047 9.4697 4.6875 9.4697C4.39453 9.4697 4.13954 9.36869 3.92253 9.16667L1.09049 6.51515C0.884332 6.32323 0.775825 6.09091 0.764974 5.81818C0.754123 5.54545 0.86263 5.30808 1.09049 5.10606L3.85742 2.54545L1.95312 0.772727ZM4.6875 3.31818L2.00195 5.81818H7.37305L4.6875 3.31818ZM10.3516 10.1818C9.97179 10.1818 9.64898 10.0581 9.38314 9.81061C9.1173 9.56313 8.98438 9.26263 8.98438 8.90909C8.98438 8.70707 9.04134 8.49242 9.15527 8.26515C9.26921 8.03788 9.45095 7.76263 9.70052 7.43939C9.78733 7.32828 9.88769 7.20707 10.0016 7.07576C10.1156 6.94444 10.2322 6.81313 10.3516 6.68182C10.4601 6.81313 10.5713 6.94192 10.6852 7.06818C10.7992 7.19444 10.9049 7.31818 11.0026 7.43939C11.1762 7.67172 11.339 7.90909 11.4909 8.15152C11.6428 8.39394 11.7188 8.64647 11.7188 8.90909C11.7188 9.26263 11.5858 9.56313 11.32 9.81061C11.0541 10.0581 10.7313 10.1818 10.3516 10.1818ZM0 14.5455V11.6364H12.5V14.5455H0Z" fill="#FBFBFB"/>
<path d="M131.609 5.85606H128.789V13.0909H127.508V5.85606H124.727V4.78788H131.609V5.85606Z" fill="#FBFBFB"/>
<path d="M120.086 4.63636C120.815 4.63636 121.44 4.79293 121.961 5.10606C122.482 5.41919 122.88 5.85859 123.156 6.42424C123.432 6.98485 123.57 7.64141 123.57 8.39394V9.17424H117.656C117.672 10.149 117.922 10.8914 118.406 11.4015C118.891 11.9116 119.573 12.1667 120.453 12.1667C120.995 12.1667 121.474 12.1187 121.891 12.0227C122.307 11.9268 122.74 11.7854 123.188 11.5985V12.7045C122.755 12.8914 122.326 13.0278 121.898 13.1136C121.477 13.1995 120.977 13.2424 120.398 13.2424C119.576 13.2424 118.857 13.0808 118.242 12.7576C117.633 12.4293 117.159 11.9495 116.82 11.3182C116.482 10.6869 116.312 9.91414 116.312 9C116.312 8.10606 116.466 7.33333 116.773 6.68182C117.086 6.02525 117.523 5.5202 118.086 5.16667C118.654 4.81313 119.32 4.63636 120.086 4.63636ZM120.07 5.66667C119.378 5.66667 118.826 5.88636 118.414 6.32576C118.003 6.76515 117.758 7.37879 117.68 8.16667H122.211C122.206 7.67172 122.125 7.23737 121.969 6.86364C121.818 6.48485 121.586 6.19192 121.273 5.98485C120.961 5.77273 120.56 5.66667 120.07 5.66667Z" fill="#FBFBFB"/>
<path d="M114.406 6.87121C114.406 7.39141 114.25 7.79798 113.938 8.09091C113.625 8.37879 113.221 8.57323 112.727 8.67424V8.73485C113.263 8.80556 113.724 8.99242 114.109 9.29545C114.5 9.59343 114.695 10.0505 114.695 10.6667C114.695 11.1414 114.578 11.5606 114.344 11.9242C114.109 12.2879 113.742 12.5732 113.242 12.7803C112.742 12.9874 112.091 13.0909 111.289 13.0909H107.602V4.78788H111.258C111.872 4.78788 112.414 4.85606 112.883 4.99242C113.357 5.12374 113.729 5.34091 114 5.64394C114.271 5.94697 114.406 6.35606 114.406 6.87121ZM113.344 10.6667C113.344 10.1768 113.151 9.82323 112.766 9.60606C112.385 9.38889 111.831 9.2803 111.102 9.2803H108.906V12.0682H111.133C111.852 12.0682 112.398 11.9621 112.773 11.75C113.154 11.5328 113.344 11.1717 113.344 10.6667ZM113.086 7.01515C113.086 6.62121 112.938 6.32828 112.641 6.13636C112.344 5.93939 111.857 5.84091 111.18 5.84091H108.906V8.22727H110.953C111.656 8.22727 112.188 8.12879 112.547 7.93182C112.906 7.73485 113.086 7.42929 113.086 7.01515Z" fill="#FBFBFB"/>
<path d="M105.922 15.9621H104.656V13.0909H97.5859V4.78788H98.8906V12.0227H103.43V4.78788H104.727V12.0379H105.922V15.9621Z" fill="#FBFBFB"/>
<path d="M85.2969 8.21212H87.9219C88.651 8.21212 89.2578 8.30051 89.7422 8.47727C90.2266 8.65404 90.5885 8.91667 90.8281 9.26515C91.0729 9.61364 91.1953 10.0455 91.1953 10.5606C91.1953 11.0758 91.0755 11.5227 90.8359 11.9015C90.6016 12.2803 90.237 12.5732 89.7422 12.7803C89.2526 12.9874 88.6198 13.0909 87.8438 13.0909H83.9922V4.78788H85.2969V8.21212ZM89.8906 10.6212C89.8906 10.1111 89.7031 9.75758 89.3281 9.56061C88.9583 9.35859 88.4401 9.25758 87.7734 9.25758H85.2969V12.0682H87.7812C88.4062 12.0682 88.9141 11.9571 89.3047 11.7348C89.6953 11.5076 89.8906 11.1364 89.8906 10.6212Z" fill="#FBFBFB"/>
<path d="M82.2969 5.85606H79.4766V13.0909H78.1953V5.85606H75.4141V4.78788H82.2969V5.85606Z" fill="#FBFBFB"/>
<path d="M70.7734 4.65152C71.7943 4.65152 72.5521 4.87374 73.0469 5.31818C73.5417 5.76263 73.7891 6.47222 73.7891 7.44697V13.0909H72.8438L72.5938 11.8636H72.5312C72.2917 12.1667 72.0417 12.4217 71.7812 12.6288C71.5208 12.8308 71.2188 12.9848 70.875 13.0909C70.5365 13.1919 70.1198 13.2424 69.625 13.2424C69.1042 13.2424 68.6406 13.154 68.2344 12.9773C67.8333 12.8005 67.5156 12.5328 67.2812 12.1742C67.0521 11.8157 66.9375 11.3611 66.9375 10.8106C66.9375 9.98232 67.276 9.34596 67.9531 8.90152C68.6302 8.45707 69.6615 8.21465 71.0469 8.17424L72.5234 8.11364V7.60606C72.5234 6.88889 72.3646 6.38636 72.0469 6.09848C71.7292 5.81061 71.2812 5.66667 70.7031 5.66667C70.2552 5.66667 69.8281 5.7298 69.4219 5.85606C69.0156 5.98232 68.6302 6.13131 68.2656 6.30303L67.8672 5.34848C68.2526 5.15657 68.6953 4.99242 69.1953 4.85606C69.6953 4.7197 70.2214 4.65152 70.7734 4.65152ZM72.5078 9L71.2031 9.05303C70.1354 9.09343 69.3828 9.26263 68.9453 9.56061C68.5078 9.85859 68.2891 10.2803 68.2891 10.8258C68.2891 11.3005 68.4375 11.6515 68.7344 11.8788C69.0312 12.1061 69.4245 12.2197 69.9141 12.2197C70.6745 12.2197 71.2969 12.0152 71.7812 11.6061C72.2656 11.197 72.5078 10.5833 72.5078 9.76515V9Z" fill="#FBFBFB"/>
<path d="M61.7969 4.63636C62.8646 4.63636 63.7161 4.99242 64.3516 5.70455C64.987 6.41667 65.3047 7.48737 65.3047 8.91667C65.3047 9.86111 65.1589 10.654 64.8672 11.2955C64.5755 11.9369 64.1641 12.4217 63.6328 12.75C63.1068 13.0783 62.4844 13.2424 61.7656 13.2424C61.3125 13.2424 60.9141 13.1843 60.5703 13.0682C60.2266 12.952 59.9323 12.7955 59.6875 12.5985C59.4427 12.4015 59.2396 12.1869 59.0781 11.9545H58.9844C59 12.1515 59.0182 12.3889 59.0391 12.6667C59.0651 12.9444 59.0781 13.1869 59.0781 13.3939V16H57.7734V4.78788H58.8438L59.0156 6.01515H59.0781C59.2448 5.76263 59.4479 5.53283 59.6875 5.32576C59.9271 5.11364 60.2188 4.94697 60.5625 4.82576C60.9115 4.6995 61.3229 4.63636 61.7969 4.63636ZM61.5703 5.69697C60.9766 5.69697 60.4974 5.80808 60.1328 6.0303C59.7734 6.25253 59.5104 6.58586 59.3438 7.0303C59.1771 7.4697 59.0885 8.02273 59.0781 8.68939V8.93182C59.0781 9.63384 59.1562 10.2273 59.3125 10.7121C59.474 11.197 59.737 11.5657 60.1016 11.8182C60.4714 12.0707 60.9661 12.197 61.5859 12.197C62.1172 12.197 62.5599 12.0581 62.9141 11.7803C63.2682 11.5025 63.5312 11.1162 63.7031 10.6212C63.8802 10.1212 63.9688 9.54798 63.9688 8.90152C63.9688 7.92172 63.7708 7.14394 63.375 6.56818C62.9844 5.98737 62.3828 5.69697 61.5703 5.69697Z" fill="#FBFBFB"/>
<path d="M47.8125 8.10606C47.8125 6.92424 47.9297 5.91667 48.1641 5.08333C48.3984 4.24495 48.7604 3.57323 49.25 3.06818C49.7448 2.55808 50.3802 2.2096 51.1562 2.02273C51.8229 1.84596 52.5 1.69444 53.1875 1.56818C53.875 1.43687 54.5443 1.32323 55.1953 1.22727L55.4219 2.33333C55.0938 2.37879 54.75 2.43182 54.3906 2.49242C54.0312 2.54798 53.6719 2.60859 53.3125 2.67424C52.9531 2.73485 52.6146 2.80051 52.2969 2.87121C51.9792 2.93687 51.6979 3.00505 51.4531 3.07576C51.0104 3.19192 50.6276 3.39394 50.3047 3.68182C49.987 3.9697 49.7344 4.36616 49.5469 4.87121C49.3646 5.37626 49.2552 6.01263 49.2188 6.7803H49.3125C49.4688 6.55808 49.6823 6.33838 49.9531 6.12121C50.224 5.90404 50.5469 5.72475 50.9219 5.58333C51.2969 5.43687 51.7188 5.36364 52.1875 5.36364C52.9271 5.36364 53.5443 5.5202 54.0391 5.83333C54.5339 6.14141 54.9062 6.57576 55.1562 7.13636C55.4062 7.69697 55.5312 8.35354 55.5312 9.10606C55.5312 10.0101 55.3698 10.7702 55.0469 11.3864C54.7292 12.0025 54.2812 12.4672 53.7031 12.7803C53.125 13.0884 52.4453 13.2424 51.6641 13.2424C51.0599 13.2424 50.5182 13.1288 50.0391 12.9015C49.5651 12.6742 49.1615 12.3409 48.8281 11.9015C48.5 11.4621 48.2474 10.9242 48.0703 10.2879C47.8984 9.65152 47.8125 8.92424 47.8125 8.10606ZM51.7656 12.197C52.2604 12.197 52.6849 12.096 53.0391 11.8939C53.3984 11.6919 53.6745 11.3737 53.8672 10.9394C54.0651 10.5 54.1641 9.92929 54.1641 9.22727C54.1641 8.34848 53.9896 7.66162 53.6406 7.16667C53.2969 6.66667 52.7448 6.41667 51.9844 6.41667C51.5104 6.41667 51.0807 6.51515 50.6953 6.71212C50.3099 6.90404 49.9844 7.13384 49.7188 7.40152C49.4531 7.66919 49.2604 7.90909 49.1406 8.12121C49.1406 8.63636 49.1797 9.13636 49.2578 9.62121C49.3359 10.1061 49.4714 10.5429 49.6641 10.9318C49.8568 11.3207 50.1224 11.6288 50.4609 11.8561C50.8047 12.0833 51.2396 12.197 51.7656 12.197Z" fill="#FBFBFB"/>
<path d="M35.9609 13.0909V4.78788H37.2656V8.21212H39.6094C40.3385 8.21212 40.9375 8.30051 41.4062 8.47727C41.8802 8.65404 42.2318 8.91667 42.4609 9.26515C42.6901 9.61364 42.8047 10.0455 42.8047 10.5606C42.8047 11.0758 42.6901 11.5227 42.4609 11.9015C42.237 12.2803 41.8828 12.5732 41.3984 12.7803C40.9193 12.9874 40.2943 13.0909 39.5234 13.0909H35.9609ZM37.2656 12.0682H39.3984C40.0443 12.0682 40.5599 11.9571 40.9453 11.7348C41.3307 11.5126 41.5234 11.1414 41.5234 10.6212C41.5234 10.1111 41.3438 9.75758 40.9844 9.56061C40.625 9.35859 40.1094 9.25758 39.4375 9.25758H37.2656V12.0682ZM44.2188 13.0909V4.78788H45.5156V13.0909H44.2188Z" fill="#FBFBFB"/>
<path d="M25.8125 2.01515H29.0469C30.474 2.01515 31.5469 2.22222 32.2656 2.63636C32.9844 3.05051 33.3438 3.75505 33.3438 4.75C33.3438 5.17929 33.2578 5.56566 33.0859 5.90909C32.9193 6.24748 32.6745 6.52778 32.3516 6.75C32.0286 6.97222 31.6302 7.12626 31.1562 7.21212V7.28788C31.6562 7.36364 32.099 7.50253 32.4844 7.70455C32.8698 7.90657 33.1719 8.18939 33.3906 8.55303C33.6094 8.91667 33.7188 9.37879 33.7188 9.93939C33.7188 10.6212 33.5547 11.197 33.2266 11.6667C32.9036 12.1364 32.4453 12.4924 31.8516 12.7348C31.2578 12.9722 30.5547 13.0909 29.7422 13.0909H25.8125V2.01515ZM27.1406 6.76515H29.3281C30.3229 6.76515 31.0104 6.60606 31.3906 6.28788C31.776 5.9697 31.9688 5.50505 31.9688 4.89394C31.9688 4.26263 31.7396 3.80808 31.2812 3.5303C30.8281 3.25253 30.1042 3.11364 29.1094 3.11364H27.1406V6.76515ZM27.1406 7.84848V11.9924H29.5156C30.5312 11.9924 31.25 11.8005 31.6719 11.4167C32.0938 11.0278 32.3047 10.5051 32.3047 9.84848C32.3047 9.42929 32.2083 9.07071 32.0156 8.77273C31.8281 8.47475 31.5208 8.24747 31.0938 8.09091C30.6719 7.92929 30.1068 7.84848 29.3984 7.84848H27.1406Z" fill="#FBFBFB"/>
</svg>
