<svg width="32" height="32" viewBox="0 0 32 32" fill="none" xmlns="http://www.w3.org/2000/svg">
<rect width="32" height="32" rx="8" fill="#484848"/>
<path d="M7.20005 27.2C6.54005 27.2 5.97505 26.965 5.50505 26.495C5.03505 26.025 4.80005 25.46 4.80005 24.8V17.6H7.20005V24.8H14.4V27.2H7.20005ZM17.6 27.2V24.8H24.8V17.6H27.2V24.8C27.2 25.46 26.965 26.025 26.495 26.495C26.025 26.965 25.46 27.2 24.8 27.2H17.6ZM8.80005 22.4L12.4 17.6L14.8 20.8L18.4 16L23.2 22.4H8.80005ZM4.80005 14.4V7.20005C4.80005 6.54005 5.03505 5.97505 5.50505 5.50505C5.97505 5.03505 6.54005 4.80005 7.20005 4.80005H14.4V7.20005H7.20005V14.4H4.80005ZM24.8 14.4V7.20005H17.6V4.80005H24.8C25.46 4.80005 26.025 5.03505 26.495 5.50505C26.965 5.97505 27.2 6.54005 27.2 7.20005V14.4H24.8ZM20.8 12.8C20.3556 12.8 19.9778 12.6445 19.6667 12.3334C19.3556 12.0223 19.2 11.6445 19.2 11.2C19.2 10.7556 19.3556 10.3778 19.6667 10.0667C19.9778 9.7556 20.3556 9.60005 20.8 9.60005C21.2445 9.60005 21.6223 9.7556 21.9334 10.0667C22.2445 10.3778 22.4 10.7556 22.4 11.2C22.4 11.6445 22.2445 12.0223 21.9334 12.3334C21.6223 12.6445 21.2445 12.8 20.8 12.8Z" fill="#FBFBFB"/>
</svg>
