<svg width="32" height="32" viewBox="0 0 32 32" fill="none" xmlns="http://www.w3.org/2000/svg">
<rect width="32" height="32" rx="8" fill="#424242"/>
<path d="M7.20029 27.2C6.54029 27.2 5.97529 26.965 5.50529 26.495C5.03529 26.025 4.80029 25.46 4.80029 24.8V17.6H7.20029V24.8H14.4003V27.2H7.20029ZM17.6003 27.2V24.8H24.8003V17.6H27.2003V24.8C27.2003 25.46 26.9653 26.025 26.4953 26.495C26.0253 26.965 25.4603 27.2 24.8003 27.2H17.6003ZM8.80029 22.4L12.4003 17.6L14.8003 20.8L18.4003 16L23.2003 22.4H8.80029ZM4.80029 14.4V7.20005C4.80029 6.54005 5.03529 5.97505 5.50529 5.50505C5.97529 5.03505 6.54029 4.80005 7.20029 4.80005H14.4003V7.20005H7.20029V14.4H4.80029ZM24.8003 14.4V7.20005H17.6003V4.80005H24.8003C25.4603 4.80005 26.0253 5.03505 26.4953 5.50505C26.9653 5.97505 27.2003 6.54005 27.2003 7.20005V14.4H24.8003ZM20.8003 12.8C20.3558 12.8 19.9781 12.6445 19.667 12.3334C19.3558 12.0223 19.2003 11.6445 19.2003 11.2C19.2003 10.7556 19.3558 10.3778 19.667 10.0667C19.9781 9.7556 20.3558 9.60005 20.8003 9.60005C21.2447 9.60005 21.6225 9.7556 21.9336 10.0667C22.2447 10.3778 22.4003 10.7556 22.4003 11.2C22.4003 11.6445 22.2447 12.0223 21.9336 12.3334C21.6225 12.6445 21.2447 12.8 20.8003 12.8Z" fill="#AFAFAF"/>
</svg>
