<svg width="201" height="16" viewBox="0 0 201 16" fill="none" xmlns="http://www.w3.org/2000/svg">
<path d="M6 10L2 6L3.0625 4.9375L5.25 7.125V0H6.75V7.125L8.9375 4.9375L10 6L6 10ZM1.49417 13C1.08139 13 0.729167 12.8531 0.4375 12.5594C0.145833 12.2656 0 11.9125 0 11.5V10H1.5V11.5H10.5V10H12V11.5C12 11.9125 11.8531 12.2656 11.5592 12.5594C11.2653 12.8531 10.9119 13 10.4992 13H1.49417Z" fill="#FBFBFB"/>
<path d="M197.664 2.88281C198.685 2.88281 199.443 3.11198 199.938 3.57031C200.432 4.02865 200.68 4.76042 200.68 5.76562V11.5859H199.734L199.484 10.3203H199.422C199.182 10.6328 198.932 10.8958 198.672 11.1094C198.411 11.3177 198.109 11.4766 197.766 11.5859C197.427 11.6901 197.01 11.7422 196.516 11.7422C195.995 11.7422 195.531 11.651 195.125 11.4688C194.724 11.2865 194.406 11.0104 194.172 10.6406C193.943 10.2708 193.828 9.80208 193.828 9.23438C193.828 8.38021 194.167 7.72396 194.844 7.26562C195.521 6.80729 196.552 6.55729 197.938 6.51562L199.414 6.45312V5.92969C199.414 5.1901 199.255 4.67188 198.938 4.375C198.62 4.07812 198.172 3.92969 197.594 3.92969C197.146 3.92969 196.719 3.99479 196.312 4.125C195.906 4.25521 195.521 4.40885 195.156 4.58594L194.758 3.60156C195.143 3.40365 195.586 3.23438 196.086 3.09375C196.586 2.95312 197.112 2.88281 197.664 2.88281ZM199.398 7.36719L198.094 7.42188C197.026 7.46354 196.273 7.63802 195.836 7.94531C195.398 8.2526 195.18 8.6875 195.18 9.25C195.18 9.73958 195.328 10.1016 195.625 10.3359C195.922 10.5703 196.315 10.6875 196.805 10.6875C197.565 10.6875 198.188 10.4766 198.672 10.0547C199.156 9.63281 199.398 9 199.398 8.15625V7.36719Z" fill="#FBFBFB"/>
<path d="M188.688 2.86719C189.755 2.86719 190.607 3.23438 191.242 3.96875C191.878 4.70312 192.195 5.80729 192.195 7.28125C192.195 8.25521 192.049 9.07292 191.758 9.73438C191.466 10.3958 191.055 10.8958 190.523 11.2344C189.997 11.5729 189.375 11.7422 188.656 11.7422C188.203 11.7422 187.805 11.6823 187.461 11.5625C187.117 11.4427 186.823 11.2812 186.578 11.0781C186.333 10.875 186.13 10.6536 185.969 10.4141H185.875C185.891 10.6172 185.909 10.862 185.93 11.1484C185.956 11.4349 185.969 11.6849 185.969 11.8984V15.4141H184.664V3.02344H185.734L185.906 4.28906H185.969C186.135 4.02865 186.339 3.79167 186.578 3.57812C186.818 3.35938 187.109 3.1875 187.453 3.0625C187.802 2.93229 188.214 2.86719 188.688 2.86719ZM188.461 3.96094C187.867 3.96094 187.388 4.07552 187.023 4.30469C186.664 4.53385 186.401 4.8776 186.234 5.33594C186.068 5.78906 185.979 6.35938 185.969 7.04688V7.29688C185.969 8.02083 186.047 8.63281 186.203 9.13281C186.365 9.63281 186.628 10.013 186.992 10.2734C187.362 10.5339 187.857 10.6641 188.477 10.6641C189.008 10.6641 189.451 10.5208 189.805 10.2344C190.159 9.94792 190.422 9.54948 190.594 9.03906C190.771 8.52344 190.859 7.93229 190.859 7.26562C190.859 6.25521 190.661 5.45312 190.266 4.85938C189.875 4.26042 189.273 3.96094 188.461 3.96094Z" fill="#FBFBFB"/>
<path d="M178.977 2.86719C179.706 2.86719 180.331 3.02865 180.852 3.35156C181.372 3.67448 181.771 4.1276 182.047 4.71094C182.323 5.28906 182.461 5.96615 182.461 6.74219V7.54688H176.547C176.562 8.55208 176.812 9.31771 177.297 9.84375C177.781 10.3698 178.464 10.6328 179.344 10.6328C179.885 10.6328 180.365 10.5833 180.781 10.4844C181.198 10.3854 181.63 10.2396 182.078 10.0469V11.1875C181.646 11.3802 181.216 11.5208 180.789 11.6094C180.367 11.6979 179.867 11.7422 179.289 11.7422C178.466 11.7422 177.747 11.5755 177.133 11.2422C176.523 10.9036 176.049 10.4089 175.711 9.75781C175.372 9.10677 175.203 8.3099 175.203 7.36719C175.203 6.44531 175.357 5.64844 175.664 4.97656C175.977 4.29948 176.414 3.77865 176.977 3.41406C177.544 3.04948 178.211 2.86719 178.977 2.86719ZM178.961 3.92969C178.268 3.92969 177.716 4.15625 177.305 4.60938C176.893 5.0625 176.648 5.69531 176.57 6.50781H181.102C181.096 5.9974 181.016 5.54948 180.859 5.16406C180.708 4.77344 180.477 4.47135 180.164 4.25781C179.852 4.03906 179.451 3.92969 178.961 3.92969Z" fill="#FBFBFB"/>
<path d="M173.984 4.125H171.164V11.5859H169.883V4.125H167.102V3.02344H173.984V4.125Z" fill="#FBFBFB"/>
<path d="M160.016 6.55469H162.641C163.37 6.55469 163.977 6.64583 164.461 6.82812C164.945 7.01042 165.307 7.28125 165.547 7.64062C165.792 8 165.914 8.44531 165.914 8.97656C165.914 9.50781 165.794 9.96875 165.555 10.3594C165.32 10.75 164.956 11.0521 164.461 11.2656C163.971 11.4792 163.339 11.5859 162.562 11.5859H158.711V3.02344H160.016V6.55469ZM164.609 9.03906C164.609 8.51302 164.422 8.14844 164.047 7.94531C163.677 7.73698 163.159 7.63281 162.492 7.63281H160.016V10.5312H162.5C163.125 10.5312 163.633 10.4167 164.023 10.1875C164.414 9.95312 164.609 9.57031 164.609 9.03906Z" fill="#FBFBFB"/>
<path d="M155.961 3.02344V11.5859H154.656V4.14062H150.094V11.5859H148.789V3.02344H155.961Z" fill="#FBFBFB"/>
<path d="M146.094 3.02344V11.5859H144.922V6.00781C144.922 5.77865 144.927 5.54688 144.938 5.3125C144.953 5.07292 144.971 4.83333 144.992 4.59375H144.945L142.102 11.5859H141L138.227 4.59375H138.18C138.195 4.83333 138.206 5.07292 138.211 5.3125C138.221 5.54688 138.227 5.79427 138.227 6.05469V11.5859H137.047V3.02344H138.789L141.555 10.0234L144.359 3.02344H146.094Z" fill="#FBFBFB"/>
<path d="M134.812 7.28906C134.812 7.99219 134.721 8.61979 134.539 9.17188C134.357 9.72396 134.094 10.1901 133.75 10.5703C133.406 10.9505 132.99 11.2422 132.5 11.4453C132.016 11.6432 131.466 11.7422 130.852 11.7422C130.279 11.7422 129.753 11.6432 129.273 11.4453C128.799 11.2422 128.388 10.9505 128.039 10.5703C127.695 10.1901 127.427 9.72396 127.234 9.17188C127.047 8.61979 126.953 7.99219 126.953 7.28906C126.953 6.35156 127.112 5.55469 127.43 4.89844C127.747 4.23698 128.201 3.73438 128.789 3.39062C129.383 3.04167 130.089 2.86719 130.906 2.86719C131.688 2.86719 132.37 3.04167 132.953 3.39062C133.542 3.73958 133.997 4.24479 134.32 4.90625C134.648 5.5625 134.812 6.35677 134.812 7.28906ZM128.297 7.28906C128.297 7.97656 128.388 8.57292 128.57 9.07812C128.753 9.58333 129.034 9.97396 129.414 10.25C129.794 10.526 130.284 10.6641 130.883 10.6641C131.477 10.6641 131.964 10.526 132.344 10.25C132.729 9.97396 133.013 9.58333 133.195 9.07812C133.378 8.57292 133.469 7.97656 133.469 7.28906C133.469 6.60677 133.378 6.01823 133.195 5.52344C133.013 5.02344 132.732 4.63802 132.352 4.36719C131.971 4.09635 131.479 3.96094 130.875 3.96094C129.984 3.96094 129.331 4.25521 128.914 4.84375C128.503 5.43229 128.297 6.2474 128.297 7.28906Z" fill="#FBFBFB"/>
<path d="M124.156 3.02344H125.586L121.891 7.15625L125.883 11.5859H124.359L120.469 7.24219V11.5859H119.164V3.02344H120.469V7.17969L124.156 3.02344Z" fill="#FBFBFB"/>
<path d="M110.766 11.7422C109.995 11.7422 109.315 11.5833 108.727 11.2656C108.138 10.9479 107.68 10.4635 107.352 9.8125C107.023 9.16146 106.859 8.34115 106.859 7.35156C106.859 6.3151 107.031 5.46875 107.375 4.8125C107.724 4.15104 108.203 3.66146 108.812 3.34375C109.422 3.02604 110.115 2.86719 110.891 2.86719C111.318 2.86719 111.729 2.91146 112.125 3C112.526 3.08333 112.854 3.1901 113.109 3.32031L112.719 4.40625C112.458 4.30208 112.156 4.20833 111.812 4.125C111.474 4.04167 111.156 4 110.859 4C110.266 4 109.771 4.1276 109.375 4.38281C108.984 4.63802 108.69 5.01302 108.492 5.50781C108.299 6.0026 108.203 6.61198 108.203 7.33594C108.203 8.02865 108.297 8.61979 108.484 9.10938C108.677 9.59896 108.961 9.97396 109.336 10.2344C109.716 10.4896 110.19 10.6172 110.758 10.6172C111.211 10.6172 111.62 10.5703 111.984 10.4766C112.349 10.3776 112.68 10.263 112.977 10.1328V11.2891C112.69 11.4349 112.37 11.5469 112.016 11.625C111.667 11.7031 111.25 11.7422 110.766 11.7422Z" fill="#FBFBFB"/>
<path d="M95.0469 6.55469H97.6719C98.401 6.55469 99.0078 6.64583 99.4922 6.82812C99.9766 7.01042 100.339 7.28125 100.578 7.64062C100.823 8 100.945 8.44531 100.945 8.97656C100.945 9.50781 100.826 9.96875 100.586 10.3594C100.352 10.75 99.987 11.0521 99.4922 11.2656C99.0026 11.4792 98.3698 11.5859 97.5938 11.5859H93.7422V3.02344H95.0469V6.55469ZM99.6406 9.03906C99.6406 8.51302 99.4531 8.14844 99.0781 7.94531C98.7083 7.73698 98.1901 7.63281 97.5234 7.63281H95.0469V10.5312H97.5312C98.1562 10.5312 98.6641 10.4167 99.0547 10.1875C99.4453 9.95312 99.6406 9.57031 99.6406 9.03906Z" fill="#FBFBFB"/>
<path d="M92.0469 4.125H89.2266V11.5859H87.9453V4.125H85.1641V3.02344H92.0469V4.125Z" fill="#FBFBFB"/>
<path d="M77.2734 3.02344V8.40625C77.2734 8.51042 77.2708 8.64583 77.2656 8.8125C77.2604 8.97396 77.2526 9.14844 77.2422 9.33594C77.2318 9.51823 77.2214 9.69531 77.2109 9.86719C77.2057 10.0339 77.1979 10.1719 77.1875 10.2812L81.8594 3.02344H83.4531V11.5859H82.2422V6.33594C82.2422 6.16927 82.2448 5.95573 82.25 5.69531C82.2552 5.4349 82.263 5.17969 82.2734 4.92969C82.2839 4.67448 82.2917 4.47656 82.2969 4.33594L77.6406 11.5859H76.0391V3.02344H77.2734Z" fill="#FBFBFB"/>
<path d="M70.5078 2.86719C71.1484 2.86719 71.7031 2.95573 72.1719 3.13281C72.6406 3.30469 73.0026 3.55729 73.2578 3.89062C73.513 4.22396 73.6406 4.63021 73.6406 5.10938C73.6406 5.625 73.5 6.03646 73.2188 6.34375C72.9375 6.65104 72.5495 6.8724 72.0547 7.00781V7.07031C72.4036 7.16406 72.7188 7.29948 73 7.47656C73.2865 7.64844 73.513 7.8776 73.6797 8.16406C73.8516 8.44531 73.9375 8.79688 73.9375 9.21875C73.9375 9.69792 73.8073 10.1302 73.5469 10.5156C73.2865 10.8958 72.8906 11.1953 72.3594 11.4141C71.8281 11.6328 71.1562 11.7422 70.3438 11.7422C69.9427 11.7422 69.5625 11.7188 69.2031 11.6719C68.8438 11.6302 68.5182 11.5677 68.2266 11.4844C67.9349 11.401 67.6797 11.3021 67.4609 11.1875V10.0078C67.8255 10.1849 68.2526 10.3411 68.7422 10.4766C69.2318 10.612 69.7604 10.6797 70.3281 10.6797C70.7656 10.6797 71.1589 10.6302 71.5078 10.5312C71.8568 10.4271 72.1328 10.263 72.3359 10.0391C72.5443 9.8099 72.6484 9.51042 72.6484 9.14062C72.6484 8.80208 72.5573 8.52344 72.375 8.30469C72.1927 8.08073 71.9193 7.91667 71.5547 7.8125C71.1953 7.70312 70.7396 7.64844 70.1875 7.64844H69.0391V6.58594H69.9844C70.7188 6.58594 71.3047 6.48177 71.7422 6.27344C72.1797 6.0651 72.3984 5.71354 72.3984 5.21875C72.3984 4.79167 72.2292 4.47396 71.8906 4.26562C71.5521 4.05208 71.0677 3.94531 70.4375 3.94531C69.9688 3.94531 69.5547 3.99479 69.1953 4.09375C68.8359 4.1875 68.4479 4.32292 68.0312 4.5L67.5703 3.46094C68.0182 3.26302 68.487 3.11458 68.9766 3.01562C69.4661 2.91667 69.9766 2.86719 70.5078 2.86719Z" fill="#FBFBFB"/>
<path d="M58.9375 3.02344H60.3281L62.2188 7.99219C62.3281 8.28385 62.4297 8.5651 62.5234 8.83594C62.6172 9.10156 62.7005 9.35677 62.7734 9.60156C62.8464 9.84635 62.9036 10.0833 62.9453 10.3125H63C63.0729 10.0521 63.1771 9.71094 63.3125 9.28906C63.4479 8.86198 63.5938 8.42708 63.75 7.98438L65.5391 3.02344H66.9375L63.2109 12.8438C63.013 13.3698 62.7812 13.8281 62.5156 14.2188C62.2552 14.6094 61.9375 14.9089 61.5625 15.1172C61.1875 15.3307 60.7344 15.4375 60.2031 15.4375C59.9583 15.4375 59.7422 15.4219 59.5547 15.3906C59.3672 15.3646 59.2057 15.3333 59.0703 15.2969V14.2578C59.1849 14.2839 59.3229 14.3073 59.4844 14.3281C59.651 14.349 59.8229 14.3594 60 14.3594C60.3229 14.3594 60.6016 14.2969 60.8359 14.1719C61.0755 14.0521 61.2812 13.875 61.4531 13.6406C61.625 13.4062 61.7734 13.1276 61.8984 12.8047L62.3672 11.6016L58.9375 3.02344Z" fill="#FBFBFB"/>
<path d="M54.5156 2.86719C55.5833 2.86719 56.4349 3.23438 57.0703 3.96875C57.7057 4.70312 58.0234 5.80729 58.0234 7.28125C58.0234 8.25521 57.8776 9.07292 57.5859 9.73438C57.2943 10.3958 56.8828 10.8958 56.3516 11.2344C55.8255 11.5729 55.2031 11.7422 54.4844 11.7422C54.0312 11.7422 53.6328 11.6823 53.2891 11.5625C52.9453 11.4427 52.651 11.2812 52.4062 11.0781C52.1615 10.875 51.9583 10.6536 51.7969 10.4141H51.7031C51.7188 10.6172 51.737 10.862 51.7578 11.1484C51.7839 11.4349 51.7969 11.6849 51.7969 11.8984L51.7031 16H50.3984L50.4922 3.02344H51.5625L51.7344 4.28906H51.7969C51.9635 4.02865 52.1667 3.79167 52.4062 3.57812C52.6458 3.35938 52.9375 3.1875 53.2812 3.0625C53.6302 2.93229 54.0417 2.86719 54.5156 2.86719ZM54.2891 3.96094C53.6953 3.96094 53.2161 4.07552 52.8516 4.30469C52.4922 4.53385 52.2292 4.8776 52.0625 5.33594C51.8958 5.78906 51.8073 6.35938 51.7969 7.04688V7.29688C51.7969 8.02083 51.875 8.63281 52.0312 9.13281C52.1927 9.63281 52.4557 10.013 52.8203 10.2734C53.1901 10.5339 53.6849 10.6641 54.3047 10.6641C54.8359 10.6641 55.2786 10.5208 55.6328 10.2344C55.987 9.94792 56.25 9.54948 56.4219 9.03906C56.599 8.52344 56.6875 7.93229 56.6875 7.26562C56.6875 6.25521 56.4896 5.45312 56.0938 4.85938C55.7031 4.26042 55.1016 3.96094 54.2891 3.96094Z" fill="#FBFBFB"/>
<path d="M48.7812 3.02344V4.125H44.8906V11.5859H43.5859V3.02344H48.7812Z" fill="#FBFBFB"/>
<path d="M37.8984 2.88281C38.9193 2.88281 39.6771 3.11198 40.1719 3.57031C40.6667 4.02865 40.9141 4.76042 40.9141 5.76562V11.5859H39.9688L39.7188 10.3203H39.6562C39.4167 10.6328 39.1667 10.8958 38.9062 11.1094C38.6458 11.3177 38.3438 11.4766 38 11.5859C37.6615 11.6901 37.2448 11.7422 36.75 11.7422C36.2292 11.7422 35.7656 11.651 35.3594 11.4688C34.9583 11.2865 34.6406 11.0104 34.4062 10.6406C34.1771 10.2708 34.0625 9.80208 34.0625 9.23438C34.0625 8.38021 34.401 7.72396 35.0781 7.26562C35.7552 6.80729 36.7865 6.55729 38.1719 6.51562L39.6484 6.45312V5.92969C39.6484 5.1901 39.4896 4.67188 39.1719 4.375C38.8542 4.07812 38.4062 3.92969 37.8281 3.92969C37.3802 3.92969 36.9531 3.99479 36.5469 4.125C36.1406 4.25521 35.7552 4.40885 35.3906 4.58594L34.9922 3.60156C35.3776 3.40365 35.8203 3.23438 36.3203 3.09375C36.8203 2.95312 37.3464 2.88281 37.8984 2.88281ZM39.6328 7.36719L38.3281 7.42188C37.2604 7.46354 36.5078 7.63802 36.0703 7.94531C35.6328 8.2526 35.4141 8.6875 35.4141 9.25C35.4141 9.73958 35.5625 10.1016 35.8594 10.3359C36.1562 10.5703 36.5495 10.6875 37.0391 10.6875C37.7995 10.6875 38.4219 10.4766 38.9062 10.0547C39.3906 9.63281 39.6328 9 39.6328 8.15625V7.36719Z" fill="#FBFBFB"/>
<path d="M32.2266 2.84375C32.2266 3.61979 31.987 4.23438 31.5078 4.6875C31.0286 5.13542 30.388 5.42708 29.5859 5.5625V5.61719C30.5234 5.7526 31.237 6.05469 31.7266 6.52344C32.2161 6.99219 32.4609 7.60677 32.4609 8.36719C32.4609 9.03906 32.2917 9.63021 31.9531 10.1406C31.6198 10.6458 31.1172 11.0391 30.4453 11.3203C29.7734 11.6016 28.9375 11.7422 27.9375 11.7422C27.3177 11.7422 26.7266 11.6927 26.1641 11.5938C25.6016 11.5 25.0859 11.3411 24.6172 11.1172V9.89062C24.9401 10.0469 25.2891 10.1823 25.6641 10.2969C26.0391 10.4115 26.4193 10.5 26.8047 10.5625C27.1953 10.6198 27.5677 10.6484 27.9219 10.6484C28.9531 10.6484 29.7344 10.4505 30.2656 10.0547C30.8021 9.65365 31.0703 9.09115 31.0703 8.36719C31.0703 7.6224 30.7604 7.08073 30.1406 6.74219C29.526 6.39844 28.6615 6.22656 27.5469 6.22656H25.9062V5.10938H27.4922C28.2422 5.10938 28.8646 5.02344 29.3594 4.85156C29.8542 4.67448 30.224 4.42708 30.4688 4.10938C30.7188 3.78646 30.8438 3.40625 30.8438 2.96875C30.8438 2.36979 30.625 1.90885 30.1875 1.58594C29.7552 1.26302 29.1901 1.10156 28.4922 1.10156C27.7682 1.10156 27.1693 1.19531 26.6953 1.38281C26.2214 1.5651 25.7604 1.80208 25.3125 2.09375L24.6719 1.1875C24.974 0.96875 25.3177 0.770833 25.7031 0.59375C26.0885 0.411458 26.5156 0.268229 26.9844 0.164062C27.4531 0.0546875 27.9583 0 28.5 0C29.3073 0 29.987 0.122396 30.5391 0.367188C31.0911 0.606771 31.5104 0.940104 31.7969 1.36719C32.0833 1.79427 32.2266 2.28646 32.2266 2.84375Z" fill="#FBFBFB"/>
</svg>
