<svg width="174" height="16" viewBox="0 0 174 16" fill="none" xmlns="http://www.w3.org/2000/svg">
<path d="M8.00583 16C6.90472 16 5.86806 15.7917 4.89583 15.375C3.92361 14.9583 3.07292 14.3854 2.34375 13.6562C1.61458 12.9271 1.04167 12.0767 0.625 11.105C0.208333 10.1333 0 9.09514 0 7.99042C0 6.88569 0.208333 5.85069 0.625 4.88542C1.04167 3.92014 1.61458 3.07292 2.34375 2.34375C3.07292 1.61458 3.92333 1.04167 4.895 0.625C5.86667 0.208333 6.90486 0 8.00958 0C9.11431 0 10.1493 0.208333 11.1146 0.625C12.0799 1.04167 12.9271 1.61458 13.6562 2.34375C14.3854 3.07292 14.9583 3.92167 15.375 4.89C15.7917 5.85847 16 6.89319 16 7.99417C16 9.09528 15.7917 10.1319 15.375 11.1042C14.9583 12.0764 14.3854 12.9271 13.6562 13.6562C12.9271 14.3854 12.0783 14.9583 11.11 15.375C10.1415 15.7917 9.10681 16 8.00583 16ZM8 14.5C9.69444 14.5 11.1528 13.9375 12.375 12.8125C13.5972 11.6875 14.2917 10.2986 14.4583 8.64583C14.3333 8.75694 14.191 8.84375 14.0312 8.90625C13.8715 8.96875 13.6944 9 13.5 9H10.5C10.0875 9 9.73438 8.85313 9.44063 8.55938C9.14688 8.26563 9 7.9125 9 7.5V6.5H5.5V4.5C5.5 4.0875 5.64688 3.73438 5.94063 3.44063C6.23438 3.14688 6.5875 3 7 3H8V2.5C8 2.30556 8.03472 2.125 8.10417 1.95833C8.17361 1.79167 8.26389 1.64583 8.375 1.52083C8.33333 1.50694 8.26389 1.5 8.16667 1.5H8C6.19444 1.5 4.65972 2.13194 3.39583 3.39583C2.13194 4.65972 1.5 6.19444 1.5 8H6C6.83333 8 7.54167 8.29167 8.125 8.875C8.70833 9.45833 9 10.1667 9 11V12H6V14.1875C6.31944 14.2986 6.64396 14.3785 6.97354 14.4271C7.30299 14.4757 7.64514 14.5 8 14.5Z" fill="#FBFBFB"/>
<path d="M169.977 3.36719C170.706 3.36719 171.331 3.52865 171.852 3.85156C172.372 4.17448 172.771 4.6276 173.047 5.21094C173.323 5.78906 173.461 6.46615 173.461 7.24219V8.04688H167.547C167.562 9.05208 167.812 9.81771 168.297 10.3438C168.781 10.8698 169.464 11.1328 170.344 11.1328C170.885 11.1328 171.365 11.0833 171.781 10.9844C172.198 10.8854 172.63 10.7396 173.078 10.5469V11.6875C172.646 11.8802 172.216 12.0208 171.789 12.1094C171.367 12.1979 170.867 12.2422 170.289 12.2422C169.466 12.2422 168.747 12.0755 168.133 11.7422C167.523 11.4036 167.049 10.9089 166.711 10.2578C166.372 9.60677 166.203 8.8099 166.203 7.86719C166.203 6.94531 166.357 6.14844 166.664 5.47656C166.977 4.79948 167.414 4.27865 167.977 3.91406C168.544 3.54948 169.211 3.36719 169.977 3.36719ZM169.961 4.42969C169.268 4.42969 168.716 4.65625 168.305 5.10938C167.893 5.5625 167.648 6.19531 167.57 7.00781H172.102C172.096 6.4974 172.016 6.04948 171.859 5.66406C171.708 5.27344 171.477 4.97135 171.164 4.75781C170.852 4.53906 170.451 4.42969 169.961 4.42969Z" fill="#FBFBFB"/>
<path d="M164.984 4.625H162.164V12.0859H160.883V4.625H158.102V3.52344H164.984V4.625Z" fill="#FBFBFB"/>
<path d="M153.461 3.36719C154.19 3.36719 154.815 3.52865 155.336 3.85156C155.857 4.17448 156.255 4.6276 156.531 5.21094C156.807 5.78906 156.945 6.46615 156.945 7.24219V8.04688H151.031C151.047 9.05208 151.297 9.81771 151.781 10.3438C152.266 10.8698 152.948 11.1328 153.828 11.1328C154.37 11.1328 154.849 11.0833 155.266 10.9844C155.682 10.8854 156.115 10.7396 156.562 10.5469V11.6875C156.13 11.8802 155.701 12.0208 155.273 12.1094C154.852 12.1979 154.352 12.2422 153.773 12.2422C152.951 12.2422 152.232 12.0755 151.617 11.7422C151.008 11.4036 150.534 10.9089 150.195 10.2578C149.857 9.60677 149.688 8.8099 149.688 7.86719C149.688 6.94531 149.841 6.14844 150.148 5.47656C150.461 4.79948 150.898 4.27865 151.461 3.91406C152.029 3.54948 152.695 3.36719 153.461 3.36719ZM153.445 4.42969C152.753 4.42969 152.201 4.65625 151.789 5.10938C151.378 5.5625 151.133 6.19531 151.055 7.00781H155.586C155.581 6.4974 155.5 6.04948 155.344 5.66406C155.193 5.27344 154.961 4.97135 154.648 4.75781C154.336 4.53906 153.935 4.42969 153.445 4.42969Z" fill="#FBFBFB"/>
<path d="M141.344 3.52344V7.11719H146.117V3.52344H147.414V12.0859H146.117V8.21875H141.344V12.0859H140.039V3.52344H141.344Z" fill="#FBFBFB"/>
<path d="M134.266 3.36719C135.333 3.36719 136.185 3.73438 136.82 4.46875C137.456 5.20312 137.773 6.30729 137.773 7.78125C137.773 8.75521 137.628 9.57292 137.336 10.2344C137.044 10.8958 136.633 11.3958 136.102 11.7344C135.576 12.0729 134.953 12.2422 134.234 12.2422C133.781 12.2422 133.383 12.1823 133.039 12.0625C132.695 11.9427 132.401 11.7812 132.156 11.5781C131.911 11.375 131.708 11.1536 131.547 10.9141H131.453C131.469 11.1172 131.487 11.362 131.508 11.6484C131.534 11.9349 131.547 12.1849 131.547 12.3984V15.9141H130.242V3.52344H131.312L131.484 4.78906H131.547C131.714 4.52865 131.917 4.29167 132.156 4.07812C132.396 3.85938 132.688 3.6875 133.031 3.5625C133.38 3.43229 133.792 3.36719 134.266 3.36719ZM134.039 4.46094C133.445 4.46094 132.966 4.57552 132.602 4.80469C132.242 5.03385 131.979 5.3776 131.812 5.83594C131.646 6.28906 131.557 6.85938 131.547 7.54688V7.79688C131.547 8.52083 131.625 9.13281 131.781 9.63281C131.943 10.1328 132.206 10.513 132.57 10.7734C132.94 11.0339 133.435 11.1641 134.055 11.1641C134.586 11.1641 135.029 11.0208 135.383 10.7344C135.737 10.4479 136 10.0495 136.172 9.53906C136.349 9.02344 136.438 8.43229 136.438 7.76562C136.438 6.75521 136.24 5.95312 135.844 5.35938C135.453 4.76042 134.852 4.46094 134.039 4.46094Z" fill="#FBFBFB"/>
<path d="M124.555 3.36719C125.284 3.36719 125.909 3.52865 126.43 3.85156C126.951 4.17448 127.349 4.6276 127.625 5.21094C127.901 5.78906 128.039 6.46615 128.039 7.24219V8.04688H122.125C122.141 9.05208 122.391 9.81771 122.875 10.3438C123.359 10.8698 124.042 11.1328 124.922 11.1328C125.464 11.1328 125.943 11.0833 126.359 10.9844C126.776 10.8854 127.208 10.7396 127.656 10.5469V11.6875C127.224 11.8802 126.794 12.0208 126.367 12.1094C125.945 12.1979 125.445 12.2422 124.867 12.2422C124.044 12.2422 123.326 12.0755 122.711 11.7422C122.102 11.4036 121.628 10.9089 121.289 10.2578C120.951 9.60677 120.781 8.8099 120.781 7.86719C120.781 6.94531 120.935 6.14844 121.242 5.47656C121.555 4.79948 121.992 4.27865 122.555 3.91406C123.122 3.54948 123.789 3.36719 124.555 3.36719ZM124.539 4.42969C123.846 4.42969 123.294 4.65625 122.883 5.10938C122.471 5.5625 122.227 6.19531 122.148 7.00781H126.68C126.674 6.4974 126.594 6.04948 126.438 5.66406C126.286 5.27344 126.055 4.97135 125.742 4.75781C125.43 4.53906 125.029 4.42969 124.539 4.42969Z" fill="#FBFBFB"/>
<path d="M119.562 4.625H116.742V12.0859H115.461V4.625H112.68V3.52344H119.562V4.625Z" fill="#FBFBFB"/>
<path d="M104.906 3.52344V7.11719H109.68V3.52344H110.977V12.0859H109.68V8.21875H104.906V12.0859H103.602V3.52344H104.906Z" fill="#FBFBFB"/>
<path d="M94.6641 3.52344V8.90625C94.6641 9.01042 94.6615 9.14583 94.6562 9.3125C94.651 9.47396 94.6432 9.64844 94.6328 9.83594C94.6224 10.0182 94.612 10.1953 94.6016 10.3672C94.5964 10.5339 94.5885 10.6719 94.5781 10.7812L99.25 3.52344H100.844V12.0859H99.6328V6.83594C99.6328 6.66927 99.6354 6.45573 99.6406 6.19531C99.6458 5.9349 99.6536 5.67969 99.6641 5.42969C99.6745 5.17448 99.6823 4.97656 99.6875 4.83594L95.0312 12.0859H93.4297V3.52344H94.6641Z" fill="#FBFBFB"/>
<path d="M86.8906 5.67188C86.8906 6.20833 86.7344 6.6276 86.4219 6.92969C86.1094 7.22656 85.7057 7.42708 85.2109 7.53125V7.59375C85.7474 7.66667 86.2083 7.85938 86.5938 8.17188C86.9844 8.47917 87.1797 8.95052 87.1797 9.58594C87.1797 10.0755 87.0625 10.5078 86.8281 10.8828C86.5938 11.2578 86.2266 11.5521 85.7266 11.7656C85.2266 11.9792 84.5755 12.0859 83.7734 12.0859H80.0859V3.52344H83.7422C84.3568 3.52344 84.8984 3.59375 85.3672 3.73438C85.8411 3.86979 86.2135 4.09375 86.4844 4.40625C86.7552 4.71875 86.8906 5.14062 86.8906 5.67188ZM85.8281 9.58594C85.8281 9.08073 85.6354 8.71615 85.25 8.49219C84.8698 8.26823 84.3151 8.15625 83.5859 8.15625H81.3906V11.0312H83.6172C84.3359 11.0312 84.8828 10.9219 85.2578 10.7031C85.638 10.4792 85.8281 10.1068 85.8281 9.58594ZM85.5703 5.82031C85.5703 5.41406 85.4219 5.11198 85.125 4.91406C84.8281 4.71094 84.3411 4.60938 83.6641 4.60938H81.3906V7.07031H83.4375C84.1406 7.07031 84.6719 6.96875 85.0312 6.76562C85.3906 6.5625 85.5703 6.2474 85.5703 5.82031Z" fill="#FBFBFB"/>
<path d="M66.9922 3.52344V8.90625C66.9922 9.01042 66.9896 9.14583 66.9844 9.3125C66.9792 9.47396 66.9714 9.64844 66.9609 9.83594C66.9505 10.0182 66.9401 10.1953 66.9297 10.3672C66.9245 10.5339 66.9167 10.6719 66.9062 10.7812L71.5781 3.52344H73.1719V12.0859H71.9609V6.83594C71.9609 6.66927 71.9635 6.45573 71.9688 6.19531C71.974 5.9349 71.9818 5.67969 71.9922 5.42969C72.0026 5.17448 72.0104 4.97656 72.0156 4.83594L67.3594 12.0859H65.7578V3.52344H66.9922Z" fill="#FBFBFB"/>
<path d="M64.0625 4.625H61.2422V12.0859H59.9609V4.625H57.1797V3.52344H64.0625V4.625Z" fill="#FBFBFB"/>
<path d="M49.2891 3.52344V8.90625C49.2891 9.01042 49.2865 9.14583 49.2812 9.3125C49.276 9.47396 49.2682 9.64844 49.2578 9.83594C49.2474 10.0182 49.237 10.1953 49.2266 10.3672C49.2214 10.5339 49.2135 10.6719 49.2031 10.7812L53.875 3.52344H55.4688V12.0859H54.2578V6.83594C54.2578 6.66927 54.2604 6.45573 54.2656 6.19531C54.2708 5.9349 54.2786 5.67969 54.2891 5.42969C54.2995 5.17448 54.3073 4.97656 54.3125 4.83594L49.6562 12.0859H48.0547V3.52344H49.2891ZM54.8281 0C54.7812 0.526042 54.6484 0.966146 54.4297 1.32031C54.2161 1.67448 53.901 1.94271 53.4844 2.125C53.0677 2.30208 52.5339 2.39062 51.8828 2.39062C51.2109 2.39062 50.6693 2.30469 50.2578 2.13281C49.8516 1.95573 49.5495 1.6901 49.3516 1.33594C49.1589 0.981771 49.0443 0.536458 49.0078 0H50.2266C50.2839 0.572917 50.4375 0.963542 50.6875 1.17188C50.9375 1.38021 51.3438 1.48438 51.9062 1.48438C52.4062 1.48438 52.7995 1.375 53.0859 1.15625C53.3724 0.9375 53.5443 0.552083 53.6016 0H54.8281Z" fill="#FBFBFB"/>
<path d="M42.3672 3.38281C43.388 3.38281 44.1458 3.61198 44.6406 4.07031C45.1354 4.52865 45.3828 5.26042 45.3828 6.26562V12.0859H44.4375L44.1875 10.8203H44.125C43.8854 11.1328 43.6354 11.3958 43.375 11.6094C43.1146 11.8177 42.8125 11.9766 42.4688 12.0859C42.1302 12.1901 41.7135 12.2422 41.2188 12.2422C40.6979 12.2422 40.2344 12.151 39.8281 11.9688C39.4271 11.7865 39.1094 11.5104 38.875 11.1406C38.6458 10.7708 38.5312 10.3021 38.5312 9.73438C38.5312 8.88021 38.8698 8.22396 39.5469 7.76562C40.224 7.30729 41.2552 7.05729 42.6406 7.01562L44.1172 6.95312V6.42969C44.1172 5.6901 43.9583 5.17188 43.6406 4.875C43.3229 4.57812 42.875 4.42969 42.2969 4.42969C41.849 4.42969 41.4219 4.49479 41.0156 4.625C40.6094 4.75521 40.224 4.90885 39.8594 5.08594L39.4609 4.10156C39.8464 3.90365 40.2891 3.73438 40.7891 3.59375C41.2891 3.45312 41.8151 3.38281 42.3672 3.38281ZM44.1016 7.86719L42.7969 7.92188C41.7292 7.96354 40.9766 8.13802 40.5391 8.44531C40.1016 8.7526 39.8828 9.1875 39.8828 9.75C39.8828 10.2396 40.0312 10.6016 40.3281 10.8359C40.625 11.0703 41.0182 11.1875 41.5078 11.1875C42.2682 11.1875 42.8906 10.9766 43.375 10.5547C43.8594 10.1328 44.1016 9.5 44.1016 8.65625V7.86719Z" fill="#FBFBFB"/>
<path d="M36.2188 12.0859H34.8906V6.70312H28.8906V12.0859H27.5625V0.664062H28.8906V5.53125H34.8906V0.664062H36.2188V12.0859Z" fill="#FBFBFB"/>
</svg>
