<svg width="125" height="17" viewBox="0 0 125 17" fill="none" xmlns="http://www.w3.org/2000/svg">
<path d="M2.5 9.45956H3.5V7.96613H4C4.28333 7.96613 4.52083 7.87071 4.7125 7.67988C4.90417 7.48906 5 7.25259 5 6.9705V6.47269C5 6.19059 4.90417 5.95413 4.7125 5.76331C4.52083 5.57248 4.28333 5.47706 4 5.47706H2.5V9.45956ZM3.5 6.9705V6.47269H4V6.9705H3.5ZM5.5 9.45956H7C7.28333 9.45956 7.52083 9.36415 7.7125 9.17332C7.90417 8.98249 8 8.74603 8 8.46394V6.47269C8 6.19059 7.90417 5.95413 7.7125 5.76331C7.52083 5.57248 7.28333 5.47706 7 5.47706H5.5V9.45956ZM6.5 8.46394V6.47269H7V8.46394H6.5ZM8.5 9.45956H9.5V7.96613H10.5V6.9705H9.5V6.47269H10.5V5.47706H8.5V9.45956ZM1.5 13.9399C1.0875 13.9399 0.734375 13.7936 0.440625 13.5012C0.146875 13.2087 0 12.8571 0 12.4464V2.49019C0 2.07949 0.146875 1.72792 0.440625 1.43545C0.734375 1.14299 1.0875 0.996753 1.5 0.996753H11.5C11.9125 0.996753 12.2656 1.14299 12.5594 1.43545C12.8531 1.72792 13 2.07949 13 2.49019V12.4464C13 12.8571 12.8531 13.2087 12.5594 13.5012C12.2656 13.7936 11.9125 13.9399 11.5 13.9399H1.5ZM1.5 12.4464H11.5V2.49019H1.5V12.4464Z" fill="#FBFBFB"/>
<path d="M124.844 8.06724C124.844 8.93323 124.758 9.77847 124.586 10.603C124.419 11.4223 124.161 12.2001 123.812 12.9365C123.469 13.6728 123.029 14.3495 122.492 14.9666H121.266C121.766 14.308 122.182 13.6028 122.516 12.8509C122.854 12.099 123.107 11.3212 123.273 10.5174C123.445 9.70847 123.531 8.88915 123.531 8.05947C123.531 7.21422 123.445 6.38194 123.273 5.56263C123.102 4.74331 122.846 3.95511 122.508 3.19802C122.174 2.44093 121.755 1.7331 121.25 1.07454H122.492C123.029 1.71236 123.469 2.40722 123.812 3.15913C124.161 3.90584 124.419 4.69405 124.586 5.52373C124.758 6.34824 124.844 7.19607 124.844 8.06724Z" fill="#FBFBFB"/>
<path d="M120.555 4.93258H118.422V12.4464H117.125V4.93258H115.609V4.31032L117.125 3.88251V3.31469C117.125 2.59909 117.232 2.01831 117.445 1.57235C117.659 1.12121 117.969 0.789331 118.375 0.576724C118.781 0.364116 119.276 0.257812 119.859 0.257812C120.188 0.257812 120.487 0.286333 120.758 0.343374C121.034 0.400415 121.276 0.465234 121.484 0.537832L121.148 1.55679C120.971 1.49975 120.771 1.4479 120.547 1.40123C120.328 1.34937 120.104 1.32344 119.875 1.32344C119.38 1.32344 119.013 1.48419 118.773 1.8057C118.539 2.12202 118.422 2.61983 118.422 3.29913V3.9214H120.555V4.93258Z" fill="#FBFBFB"/>
<path d="M109.992 12.602C108.909 12.602 108.049 12.2338 107.414 11.4975C106.784 10.7611 106.469 9.66698 106.469 8.21503C106.469 6.74752 106.792 5.64041 107.438 4.89369C108.083 4.14179 108.943 3.76583 110.016 3.76583C110.469 3.76583 110.865 3.82547 111.203 3.94474C111.542 4.064 111.833 4.22475 112.078 4.42699C112.323 4.62404 112.529 4.84961 112.695 5.1037H112.789C112.768 4.94295 112.747 4.72257 112.727 4.44255C112.706 4.16253 112.695 3.93436 112.695 3.75806V0.343374H113.992V12.4464H112.945L112.75 11.233H112.695C112.534 11.4871 112.328 11.7179 112.078 11.9253C111.833 12.1327 111.539 12.2986 111.195 12.4231C110.857 12.5424 110.456 12.602 109.992 12.602ZM110.195 11.5286C111.112 11.5286 111.76 11.2693 112.141 10.7508C112.521 10.2322 112.711 9.46216 112.711 8.4406V8.20725C112.711 7.12347 112.529 6.29119 112.164 5.71041C111.805 5.12963 111.148 4.83924 110.195 4.83924C109.398 4.83924 108.802 5.14519 108.406 5.75708C108.01 6.36379 107.812 7.19348 107.812 8.24615C107.812 9.29363 108.008 10.1026 108.398 10.673C108.794 11.2434 109.393 11.5286 110.195 11.5286Z" fill="#FBFBFB"/>
<path d="M101.172 3.76583C102.24 3.76583 103.091 4.13141 103.727 4.86258C104.362 5.59374 104.68 6.69307 104.68 8.16058C104.68 9.13028 104.534 9.94441 104.242 10.603C103.951 11.2615 103.539 11.7594 103.008 12.0964C102.482 12.4335 101.859 12.602 101.141 12.602C100.688 12.602 100.289 12.5424 99.9453 12.4231C99.6016 12.3038 99.3073 12.1431 99.0625 11.9408C98.8177 11.7386 98.6146 11.5182 98.4531 11.2797H98.3594C98.375 11.4819 98.3932 11.7256 98.4141 12.0109C98.4401 12.2961 98.4531 12.545 98.4531 12.7576V16.2578H97.1484V3.9214H98.2188L98.3906 5.18149H98.4531C98.6198 4.92221 98.8229 4.68627 99.0625 4.47366C99.3021 4.25587 99.5938 4.08475 99.9375 3.96029C100.286 3.83065 100.698 3.76583 101.172 3.76583ZM100.945 4.8548C100.352 4.8548 99.8724 4.96888 99.5078 5.19704C99.1484 5.42521 98.8854 5.76745 98.7188 6.22378C98.5521 6.67492 98.4635 7.24274 98.4531 7.92723V8.17614C98.4531 8.89693 98.5312 9.50623 98.6875 10.004C98.849 10.5019 99.112 10.8804 99.4766 11.1397C99.8464 11.399 100.341 11.5286 100.961 11.5286C101.492 11.5286 101.935 11.386 102.289 11.1008C102.643 10.8156 102.906 10.4189 103.078 9.91071C103.255 9.39734 103.344 8.80878 103.344 8.14503C103.344 7.13903 103.146 6.34046 102.75 5.74931C102.359 5.15297 101.758 4.8548 100.945 4.8548Z" fill="#FBFBFB"/>
<path d="M91.7031 8.0828C91.7031 7.20644 91.7865 6.35342 91.9531 5.52373C92.125 4.69405 92.3854 3.90325 92.7344 3.15135C93.0833 2.39944 93.5234 1.70717 94.0547 1.07454H95.2969C94.5417 2.05979 93.974 3.15394 93.5938 4.35699C93.2135 5.56003 93.0234 6.79679 93.0234 8.06724C93.0234 8.89693 93.1068 9.71625 93.2734 10.5252C93.4453 11.329 93.6979 12.1042 94.0312 12.8509C94.3698 13.5976 94.7865 14.3029 95.2812 14.9666H94.0547C93.5234 14.3443 93.0833 13.665 92.7344 12.9287C92.3854 12.1975 92.125 11.4223 91.9531 10.603C91.7865 9.78366 91.7031 8.9436 91.7031 8.0828Z" fill="#FBFBFB"/>
<path d="M86.5781 5.01814H83.7578V12.4464H82.4766V5.01814H79.6953V3.9214H86.5781V5.01814Z" fill="#FBFBFB"/>
<path d="M74.9688 3.76583C76.0365 3.76583 76.888 4.13141 77.5234 4.86258C78.1589 5.59374 78.4766 6.69307 78.4766 8.16058C78.4766 9.13028 78.3307 9.94441 78.0391 10.603C77.7474 11.2615 77.3359 11.7594 76.8047 12.0964C76.2786 12.4335 75.6562 12.602 74.9375 12.602C74.4844 12.602 74.0859 12.5424 73.7422 12.4231C73.3984 12.3038 73.1042 12.1431 72.8594 11.9408C72.6146 11.7386 72.4115 11.5182 72.25 11.2797H72.1562C72.1719 11.4819 72.1901 11.7256 72.2109 12.0109C72.237 12.2961 72.25 12.545 72.25 12.7576V16.2578H70.9453V3.9214H72.0156L72.1875 5.18149H72.25C72.4167 4.92221 72.6198 4.68627 72.8594 4.47366C73.099 4.25587 73.3906 4.08475 73.7344 3.96029C74.0833 3.83065 74.4948 3.76583 74.9688 3.76583ZM74.7422 4.8548C74.1484 4.8548 73.6693 4.96888 73.3047 5.19704C72.9453 5.42521 72.6823 5.76745 72.5156 6.22378C72.349 6.67492 72.2604 7.24274 72.25 7.92723V8.17614C72.25 8.89693 72.3281 9.50623 72.4844 10.004C72.6458 10.5019 72.9089 10.8804 73.2734 11.1397C73.6432 11.399 74.138 11.5286 74.7578 11.5286C75.2891 11.5286 75.7318 11.386 76.0859 11.1008C76.4401 10.8156 76.7031 10.4189 76.875 9.91071C77.0521 9.39734 77.1406 8.80878 77.1406 8.14503C77.1406 7.13903 76.9427 6.34046 76.5469 5.74931C76.1562 5.15297 75.5547 4.8548 74.7422 4.8548Z" fill="#FBFBFB"/>
<path d="M68.7031 8.16836C68.7031 8.86841 68.612 9.49327 68.4297 10.0429C68.2474 10.5926 67.9844 11.0567 67.6406 11.4353C67.2969 11.8138 66.8802 12.1042 66.3906 12.3064C65.9062 12.5035 65.3568 12.602 64.7422 12.602C64.1693 12.602 63.6432 12.5035 63.1641 12.3064C62.6901 12.1042 62.2786 11.8138 61.9297 11.4353C61.5859 11.0567 61.3177 10.5926 61.125 10.0429C60.9375 9.49327 60.8438 8.86841 60.8438 8.16836C60.8438 7.23496 61.0026 6.44158 61.3203 5.7882C61.638 5.12963 62.0911 4.62923 62.6797 4.28698C63.2734 3.93955 63.9792 3.76583 64.7969 3.76583C65.5781 3.76583 66.2604 3.93955 66.8438 4.28698C67.4323 4.63441 67.888 5.13741 68.2109 5.79598C68.5391 6.44935 68.7031 7.24015 68.7031 8.16836ZM62.1875 8.16836C62.1875 8.85285 62.2786 9.4466 62.4609 9.9496C62.6432 10.4526 62.9245 10.8415 63.3047 11.1163C63.6849 11.3912 64.1745 11.5286 64.7734 11.5286C65.3672 11.5286 65.8542 11.3912 66.2344 11.1163C66.6198 10.8415 66.9036 10.4526 67.0859 9.9496C67.2682 9.4466 67.3594 8.85285 67.3594 8.16836C67.3594 7.48906 67.2682 6.90309 67.0859 6.41046C66.9036 5.91265 66.6224 5.52892 66.2422 5.25927C65.862 4.98962 65.3698 4.8548 64.7656 4.8548C63.875 4.8548 63.2214 5.14778 62.8047 5.73375C62.3932 6.31972 62.1875 7.13125 62.1875 8.16836Z" fill="#FBFBFB"/>
<path d="M58.5703 3.9214V12.4464H57.2656V5.0337H52.7031V12.4464H51.3984V3.9214H58.5703Z" fill="#FBFBFB"/>
<path d="M47.1562 12.602C46.3854 12.602 45.7057 12.4438 45.1172 12.1275C44.5286 11.8112 44.0703 11.329 43.7422 10.6808C43.4141 10.0326 43.25 9.21584 43.25 8.23059C43.25 7.19867 43.4219 6.35601 43.7656 5.70264C44.1146 5.04407 44.5938 4.55663 45.2031 4.24031C45.8125 3.92399 46.5052 3.76583 47.2812 3.76583C47.7083 3.76583 48.1198 3.80991 48.5156 3.89807C48.9167 3.98103 49.2448 4.08734 49.5 4.21698L49.1094 5.29816C48.849 5.19445 48.5469 5.10111 48.2031 5.01814C47.8646 4.93517 47.5469 4.89369 47.25 4.89369C46.6562 4.89369 46.1615 5.02074 45.7656 5.27483C45.375 5.52892 45.0807 5.90228 44.8828 6.39491C44.6901 6.88753 44.5938 7.49424 44.5938 8.21503C44.5938 8.90471 44.6875 9.49327 44.875 9.98071C45.0677 10.4682 45.3516 10.8415 45.7266 11.1008C46.1068 11.3549 46.5807 11.4819 47.1484 11.4819C47.6016 11.4819 48.0104 11.4353 48.375 11.3419C48.7396 11.2434 49.0703 11.1293 49.3672 10.9997V12.1509C49.0807 12.2961 48.7604 12.4075 48.4062 12.4853C48.0573 12.5631 47.6406 12.602 47.1562 12.602Z" fill="#FBFBFB"/>
<path d="M40.4531 3.9214H41.8828L38.1875 8.03613L42.1797 12.4464H40.6562L36.7656 8.12169V12.4464H35.4609V3.9214H36.7656V8.05947L40.4531 3.9214Z" fill="#FBFBFB"/>
<path d="M27.7031 2.07794C27.1771 2.07794 26.6901 2.13757 26.2422 2.25684C25.7995 2.37611 25.3984 2.51871 25.0391 2.68465L24.4922 1.57235C24.9349 1.35974 25.4349 1.1964 25.9922 1.08231C26.5495 0.968232 27.125 0.911191 27.7188 0.911191C28.6302 0.911191 29.4219 1.0512 30.0938 1.33122C30.7708 1.60605 31.3307 1.99756 31.7734 2.50575C32.2161 3.01393 32.5469 3.61286 32.7656 4.30254C32.9844 4.99222 33.0938 5.74931 33.0938 6.57381C33.0938 7.80278 32.8906 8.86841 32.4844 9.7707C32.0781 10.673 31.4661 11.3704 30.6484 11.8631C29.8359 12.3557 28.8177 12.602 27.5938 12.602C26.9323 12.602 26.3698 12.5631 25.9062 12.4853C25.4479 12.4127 25 12.2986 24.5625 12.1431V10.9919C25.0052 11.1112 25.4557 11.2175 25.9141 11.3108C26.3776 11.399 26.8698 11.443 27.3906 11.443C28.0885 11.443 28.7005 11.3471 29.2266 11.1552C29.7578 10.9634 30.2031 10.6808 30.5625 10.3074C30.9219 9.93404 31.1953 9.47771 31.3828 8.93842C31.5755 8.39912 31.6797 7.78204 31.6953 7.08718H26.0469V5.92043H31.6797C31.6328 5.3189 31.5078 4.7822 31.3047 4.31032C31.1016 3.83325 30.8281 3.42877 30.4844 3.0969C30.1406 2.76502 29.7344 2.51352 29.2656 2.3424C28.8021 2.16609 28.2812 2.07794 27.7031 2.07794Z" fill="#FBFBFB"/>
</svg>
