<svg width="133" height="17" viewBox="0 0 133 17" fill="none" xmlns="http://www.w3.org/2000/svg">
<path d="M2.5 8.45316H4C4.14167 8.45316 4.26042 8.40533 4.35625 8.30969C4.45208 8.21404 4.5 8.09552 4.5 7.95413V4.46095H3.5V7.4551H3V6.45705H2V7.95413C2 8.09552 2.04792 8.21404 2.14375 8.30969C2.23958 8.40533 2.35833 8.45316 2.5 8.45316ZM5.5 8.45316H7C7.14167 8.45316 7.26042 8.40533 7.35625 8.30969C7.45208 8.21404 7.5 8.09552 7.5 7.95413V6.70657C7.5 6.56518 7.45208 6.44666 7.35625 6.35101C7.26042 6.25536 7.14167 6.20754 7 6.20754H6V5.459H6.5V5.70852H7.5V4.95998C7.5 4.81859 7.45208 4.70007 7.35625 4.60442C7.26042 4.50878 7.14167 4.46095 7 4.46095H5.5C5.35833 4.46095 5.23958 4.50878 5.14375 4.60442C5.04792 4.70007 5 4.81859 5 4.95998V6.20754C5 6.34893 5.04792 6.46745 5.14375 6.5631C5.23958 6.65874 5.35833 6.70657 5.5 6.70657H6.5V7.4551H6V7.20559H5V7.95413C5 8.09552 5.04792 8.21404 5.14375 8.30969C5.23958 8.40533 5.35833 8.45316 5.5 8.45316ZM9 7.4551V5.459H9.5V7.4551H9ZM8.5 8.45316H10C10.1417 8.45316 10.2604 8.40533 10.3562 8.30969C10.4521 8.21404 10.5 8.09552 10.5 7.95413V4.95998C10.5 4.81859 10.4521 4.70007 10.3562 4.60442C10.2604 4.50878 10.1417 4.46095 10 4.46095H8.5C8.35833 4.46095 8.23958 4.50878 8.14375 4.60442C8.04792 4.70007 8 4.81859 8 4.95998V7.95413C8 8.09552 8.04792 8.21404 8.14375 8.30969C8.23958 8.40533 8.35833 8.45316 8.5 8.45316ZM11 8.45316H12V6.51943L12.75 8.45316H13.75V4.46095H12.75V6.39468L12 4.46095H11V8.45316ZM1.5 12.4454C1.0875 12.4454 0.734375 12.2987 0.440625 12.0054C0.146875 11.7121 0 11.3594 0 10.9475V1.96C0 1.54803 0.146875 1.1965 0.440625 0.905397C0.734375 0.614299 1.0875 0.46875 1.5 0.46875H14.5C14.9125 0.46875 15.2656 0.615408 15.5594 0.908724C15.8531 1.20204 16 1.55468 16 1.96666V10.9541C16 11.3661 15.8531 11.7176 15.5594 12.0087C15.2656 12.2998 14.9125 12.4454 14.5 12.4454H1.5ZM1.5 10.9483H14.5V1.96583H1.5V10.9483Z" fill="#FBFBFB"/>
<path d="M132.969 7.85277C132.969 8.72086 132.883 9.56817 132.711 10.3947C132.544 11.216 132.286 11.9957 131.938 12.7339C131.594 13.472 131.154 14.1504 130.617 14.7689H129.391C129.891 14.1088 130.307 13.4018 130.641 12.6481C130.979 11.8944 131.232 11.1146 131.398 10.3089C131.57 9.49799 131.656 8.67668 131.656 7.84497C131.656 6.99766 131.57 6.16336 131.398 5.34204C131.227 4.52073 130.971 3.73061 130.633 2.97167C130.299 2.21274 129.88 1.50319 129.375 0.843019H130.617C131.154 1.4824 131.594 2.17895 131.938 2.93269C132.286 3.68123 132.544 4.47135 132.711 5.30306C132.883 6.12957 132.969 6.97947 132.969 7.85277Z" fill="#FBFBFB"/>
<path d="M124.5 3.54087C125.516 3.54087 126.284 3.79039 126.805 4.28941C127.326 4.78324 127.586 5.57856 127.586 6.67538V12.2426H126.305V6.76115C126.305 6.049 126.141 5.51618 125.812 5.16271C125.49 4.80923 124.992 4.63249 124.32 4.63249C123.372 4.63249 122.706 4.9002 122.32 5.43561C121.935 5.97102 121.742 6.74815 121.742 7.767V12.2426H120.445V3.69682H121.492L121.688 4.92879H121.758C121.94 4.62729 122.172 4.37518 122.453 4.17245C122.734 3.96453 123.049 3.80858 123.398 3.70462C123.747 3.59546 124.115 3.54087 124.5 3.54087Z" fill="#FBFBFB"/>
<path d="M118.203 7.95413C118.203 8.65588 118.112 9.28227 117.93 9.83327C117.747 10.3843 117.484 10.8495 117.141 11.229C116.797 11.6085 116.38 11.8995 115.891 12.1023C115.406 12.2998 114.857 12.3986 114.242 12.3986C113.669 12.3986 113.143 12.2998 112.664 12.1023C112.19 11.8995 111.779 11.6085 111.43 11.229C111.086 10.8495 110.818 10.3843 110.625 9.83327C110.438 9.28227 110.344 8.65588 110.344 7.95413C110.344 7.01846 110.503 6.22314 110.82 5.56817C111.138 4.908 111.591 4.40637 112.18 4.06329C112.773 3.71501 113.479 3.54087 114.297 3.54087C115.078 3.54087 115.76 3.71501 116.344 4.06329C116.932 4.41157 117.388 4.91579 117.711 5.57596C118.039 6.23093 118.203 7.02366 118.203 7.95413ZM111.688 7.95413C111.688 8.64029 111.779 9.23548 111.961 9.73971C112.143 10.2439 112.424 10.6338 112.805 10.9093C113.185 11.1848 113.674 11.3226 114.273 11.3226C114.867 11.3226 115.354 11.1848 115.734 10.9093C116.12 10.6338 116.404 10.2439 116.586 9.73971C116.768 9.23548 116.859 8.64029 116.859 7.95413C116.859 7.27317 116.768 6.68577 116.586 6.19195C116.404 5.69292 116.122 5.30826 115.742 5.03795C115.362 4.76765 114.87 4.63249 114.266 4.63249C113.375 4.63249 112.721 4.92619 112.305 5.51358C111.893 6.10098 111.688 6.91449 111.688 7.95413Z" fill="#FBFBFB"/>
<path d="M108.734 9.90345C108.734 10.4493 108.596 10.9093 108.32 11.2836C108.049 11.6526 107.659 11.9307 107.148 12.1179C106.643 12.305 106.039 12.3986 105.336 12.3986C104.737 12.3986 104.219 12.3518 103.781 12.2582C103.344 12.1647 102.961 12.0321 102.633 11.8606V10.6676C102.982 10.8391 103.398 10.9951 103.883 11.1354C104.367 11.2758 104.862 11.3459 105.367 11.3459C106.107 11.3459 106.643 11.2264 106.977 10.9873C107.31 10.7482 107.477 10.4233 107.477 10.0126C107.477 9.77869 107.409 9.57336 107.273 9.39663C107.143 9.21469 106.922 9.04055 106.609 8.87421C106.297 8.70267 105.865 8.51553 105.312 8.3128C104.766 8.10488 104.292 7.89955 103.891 7.69682C103.495 7.48889 103.188 7.23678 102.969 6.94048C102.755 6.64419 102.648 6.25952 102.648 5.78649C102.648 5.06394 102.94 4.51034 103.523 4.12567C104.112 3.73581 104.883 3.54087 105.836 3.54087C106.352 3.54087 106.833 3.59286 107.281 3.69682C107.734 3.79559 108.156 3.93074 108.547 4.10228L108.109 5.13932C107.755 4.98857 107.378 4.86121 106.977 4.75725C106.576 4.65329 106.167 4.6013 105.75 4.6013C105.151 4.6013 104.69 4.70007 104.367 4.8976C104.049 5.09513 103.891 5.36544 103.891 5.70852C103.891 5.97362 103.964 6.19195 104.109 6.36349C104.26 6.53503 104.5 6.69617 104.828 6.84692C105.156 6.99766 105.589 7.1744 106.125 7.37713C106.661 7.57466 107.125 7.77999 107.516 7.99312C107.906 8.20104 108.206 8.45575 108.414 8.75725C108.628 9.05355 108.734 9.43561 108.734 9.90345Z" fill="#FBFBFB"/>
<path d="M98.1172 16.0789C97.8516 16.0789 97.6198 16.0581 97.4219 16.0165C97.224 15.9801 97.0521 15.9359 96.9062 15.884V14.8313C97.0677 14.8833 97.2318 14.9223 97.3984 14.9483C97.5651 14.9795 97.7526 14.9951 97.9609 14.9951C98.3151 14.9951 98.6016 14.8963 98.8203 14.6988C99.0391 14.5012 99.1484 14.1426 99.1484 13.6227V3.69682H100.445V13.5916C100.445 14.1114 100.362 14.5558 100.195 14.9249C100.029 15.2992 99.7734 15.5851 99.4297 15.7826C99.0859 15.9801 98.6484 16.0789 98.1172 16.0789ZM99.0312 1.34984C99.0312 1.05874 99.1042 0.845618 99.25 0.710465C99.401 0.570115 99.5885 0.499939 99.8125 0.499939C100.026 0.499939 100.208 0.570115 100.359 0.710465C100.516 0.845618 100.594 1.05874 100.594 1.34984C100.594 1.63574 100.516 1.84887 100.359 1.98922C100.208 2.12957 100.026 2.19974 99.8125 2.19974C99.5885 2.19974 99.401 2.12957 99.25 1.98922C99.1042 1.84887 99.0312 1.63574 99.0312 1.34984Z" fill="#FBFBFB"/>
<path d="M93.7031 7.86836C93.7031 6.98987 93.7865 6.13477 93.9531 5.30306C94.125 4.47135 94.3854 3.67863 94.7344 2.92489C95.0833 2.17115 95.5234 1.4772 96.0547 0.843019H97.2969C96.5417 1.83067 95.974 2.92749 95.5938 4.13347C95.2135 5.33945 95.0234 6.57921 95.0234 7.85277C95.0234 8.68447 95.1068 9.50579 95.2734 10.3167C95.4453 11.1224 95.6979 11.8995 96.0312 12.6481C96.3698 13.3966 96.7865 14.1036 97.2812 14.7689H96.0547C95.5234 14.1452 95.0833 13.4642 94.7344 12.7261C94.3854 11.9931 94.125 11.216 93.9531 10.3947C93.7865 9.57336 93.7031 8.73126 93.7031 7.86836Z" fill="#FBFBFB"/>
<path d="M88.5781 4.79624H85.7578V12.2426H84.4766V4.79624H81.6953V3.69682H88.5781V4.79624Z" fill="#FBFBFB"/>
<path d="M76.9688 3.54087C78.0365 3.54087 78.888 3.90735 79.5234 4.64029C80.1589 5.37323 80.4766 6.47525 80.4766 7.94633C80.4766 8.91839 80.3307 9.73451 80.0391 10.3947C79.7474 11.0548 79.3359 11.5539 78.8047 11.8918C78.2786 12.2296 77.6562 12.3986 76.9375 12.3986C76.4844 12.3986 76.0859 12.3388 75.7422 12.2192C75.3984 12.0997 75.1042 11.9385 74.8594 11.7358C74.6146 11.5331 74.4115 11.3122 74.25 11.073H74.1562C74.1719 11.2758 74.1901 11.5201 74.2109 11.806C74.237 12.0919 74.25 12.3414 74.25 12.5545V16.4688H72.9453V3.69682H74.0156L74.1875 4.95998H74.25C74.4167 4.70007 74.6198 4.46355 74.8594 4.25043C75.099 4.0321 75.3906 3.86056 75.7344 3.73581C76.0833 3.60585 76.4948 3.54087 76.9688 3.54087ZM76.7422 4.63249C76.1484 4.63249 75.6693 4.74685 75.3047 4.97557C74.9453 5.20429 74.6823 5.54737 74.5156 6.00481C74.349 6.45705 74.2604 7.02625 74.25 7.71241V7.96193C74.25 8.68447 74.3281 9.29526 74.4844 9.79429C74.6458 10.2933 74.9089 10.6728 75.2734 10.9327C75.6432 11.1926 76.138 11.3226 76.7578 11.3226C77.2891 11.3226 77.7318 11.1796 78.0859 10.8937C78.4401 10.6078 78.7031 10.2101 78.875 9.70072C79.0521 9.1861 79.1406 8.59611 79.1406 7.93074C79.1406 6.92229 78.9427 6.12177 78.5469 5.52918C78.1562 4.93139 77.5547 4.63249 76.7422 4.63249Z" fill="#FBFBFB"/>
<path d="M70.7031 7.95413C70.7031 8.65588 70.612 9.28227 70.4297 9.83327C70.2474 10.3843 69.9844 10.8495 69.6406 11.229C69.2969 11.6085 68.8802 11.8995 68.3906 12.1023C67.9062 12.2998 67.3568 12.3986 66.7422 12.3986C66.1693 12.3986 65.6432 12.2998 65.1641 12.1023C64.6901 11.8995 64.2786 11.6085 63.9297 11.229C63.5859 10.8495 63.3177 10.3843 63.125 9.83327C62.9375 9.28227 62.8438 8.65588 62.8438 7.95413C62.8438 7.01846 63.0026 6.22314 63.3203 5.56817C63.638 4.908 64.0911 4.40637 64.6797 4.06329C65.2734 3.71501 65.9792 3.54087 66.7969 3.54087C67.5781 3.54087 68.2604 3.71501 68.8438 4.06329C69.4323 4.41157 69.888 4.91579 70.2109 5.57596C70.5391 6.23093 70.7031 7.02366 70.7031 7.95413ZM64.1875 7.95413C64.1875 8.64029 64.2786 9.23548 64.4609 9.73971C64.6432 10.2439 64.9245 10.6338 65.3047 10.9093C65.6849 11.1848 66.1745 11.3226 66.7734 11.3226C67.3672 11.3226 67.8542 11.1848 68.2344 10.9093C68.6198 10.6338 68.9036 10.2439 69.0859 9.73971C69.2682 9.23548 69.3594 8.64029 69.3594 7.95413C69.3594 7.27317 69.2682 6.68577 69.0859 6.19195C68.9036 5.69292 68.6224 5.30826 68.2422 5.03795C67.862 4.76765 67.3698 4.63249 66.7656 4.63249C65.875 4.63249 65.2214 4.92619 64.8047 5.51358C64.3932 6.10098 64.1875 6.91449 64.1875 7.95413Z" fill="#FBFBFB"/>
<path d="M60.5703 3.69682V12.2426H59.2656V4.81183H54.7031V12.2426H53.3984V3.69682H60.5703Z" fill="#FBFBFB"/>
<path d="M49.1562 12.3986C48.3854 12.3986 47.7057 12.24 47.1172 11.9229C46.5286 11.6059 46.0703 11.1224 45.7422 10.4726C45.4141 9.82288 45.25 9.00416 45.25 8.01651C45.25 6.98207 45.4219 6.13737 45.7656 5.4824C46.1146 4.82223 46.5938 4.3336 47.2031 4.01651C47.8125 3.69942 48.5052 3.54087 49.2812 3.54087C49.7083 3.54087 50.1198 3.58506 50.5156 3.67343C50.9167 3.7566 51.2448 3.86316 51.5 3.99312L51.1094 5.07694C50.849 4.97297 50.5469 4.87941 50.2031 4.79624C49.8646 4.71306 49.5469 4.67148 49.25 4.67148C48.6562 4.67148 48.1615 4.79883 47.7656 5.05355C47.375 5.30826 47.0807 5.68253 46.8828 6.17635C46.6901 6.67018 46.5938 7.27837 46.5938 8.00091C46.5938 8.69227 46.6875 9.28227 46.875 9.77089C47.0677 10.2595 47.3516 10.6338 47.7266 10.8937C48.1068 11.1484 48.5807 11.2758 49.1484 11.2758C49.6016 11.2758 50.0104 11.229 50.375 11.1354C50.7396 11.0367 51.0703 10.9223 51.3672 10.7923V11.9463C51.0807 12.0919 50.7604 12.2036 50.4062 12.2816C50.0573 12.3596 49.6406 12.3986 49.1562 12.3986Z" fill="#FBFBFB"/>
<path d="M42.4531 3.69682H43.8828L40.1875 7.82158L44.1797 12.2426H42.6562L38.7656 7.90735V12.2426H37.4609V3.69682H38.7656V7.84497L42.4531 3.69682Z" fill="#FBFBFB"/>
<path d="M29.7031 1.84887C29.1771 1.84887 28.6901 1.90865 28.2422 2.0282C27.7995 2.14776 27.3984 2.29071 27.0391 2.45705L26.4922 1.34204C26.9349 1.12892 27.4349 0.965176 27.9922 0.850816C28.5495 0.736456 29.125 0.679276 29.7188 0.679276C30.6302 0.679276 31.4219 0.819627 32.0938 1.10033C32.7708 1.37583 33.3307 1.7683 33.7734 2.27772C34.2161 2.78714 34.5469 3.38753 34.7656 4.07889C34.9844 4.77024 35.0938 5.52918 35.0938 6.35569C35.0938 7.58766 34.8906 8.65588 34.4844 9.56037C34.0781 10.4649 33.4661 11.164 32.6484 11.6578C31.8359 12.1517 30.8177 12.3986 29.5938 12.3986C28.9323 12.3986 28.3698 12.3596 27.9062 12.2816C27.4479 12.2088 27 12.0945 26.5625 11.9385V10.7845C27.0052 10.9041 27.4557 11.0107 27.9141 11.1042C28.3776 11.1926 28.8698 11.2368 29.3906 11.2368C30.0885 11.2368 30.7005 11.1406 31.2266 10.9483C31.7578 10.7559 32.2031 10.4726 32.5625 10.0984C32.9219 9.72411 33.1953 9.26667 33.3828 8.72606C33.5755 8.18545 33.6797 7.56687 33.6953 6.87031H28.0469V5.70072H33.6797C33.6328 5.09773 33.5078 4.55972 33.3047 4.08668C33.1016 3.60845 32.8281 3.20299 32.4844 2.87031C32.1406 2.53763 31.7344 2.28551 31.2656 2.11397C30.8021 1.93724 30.2812 1.84887 29.7031 1.84887Z" fill="#FBFBFB"/>
</svg>
