<svg width="247" height="32" viewBox="0 0 247 32" fill="none" xmlns="http://www.w3.org/2000/svg">
<rect width="247" height="32" rx="8" fill="#424242"/>
<path d="M23.5 10.4141V11.8203C24.724 11.8464 25.6979 12.0547 26.4219 12.4453C27.151 12.8307 27.6745 13.3385 27.9922 13.9688C28.3151 14.599 28.4766 15.2995 28.4766 16.0703C28.4766 16.5807 28.3932 17.0885 28.2266 17.5938C28.0599 18.099 27.7865 18.5599 27.4062 18.9766C27.026 19.3932 26.5156 19.7292 25.875 19.9844C25.2344 20.2396 24.4427 20.3776 23.5 20.3984V22.1562H21.75V20.3984C20.7865 20.3776 19.9844 20.237 19.3438 19.9766C18.7031 19.7161 18.1927 19.3776 17.8125 18.9609C17.4375 18.5391 17.1693 18.0781 17.0078 17.5781C16.8516 17.0729 16.7734 16.5729 16.7734 16.0781C16.7734 15.5104 16.8594 14.974 17.0312 14.4688C17.2083 13.9635 17.4922 13.5156 17.8828 13.125C18.2734 12.7344 18.7865 12.4245 19.4219 12.1953C20.0573 11.9661 20.8333 11.8411 21.75 11.8203V10.4141H23.5ZM21.75 13.3281C20.974 13.3542 20.3542 13.4844 19.8906 13.7188C19.4271 13.9479 19.0938 14.263 18.8906 14.6641C18.6875 15.0651 18.5859 15.5312 18.5859 16.0625C18.5859 16.6302 18.6979 17.1224 18.9219 17.5391C19.1458 17.9557 19.4922 18.2839 19.9609 18.5234C20.4297 18.7578 21.026 18.888 21.75 18.9141V13.3281ZM23.5 13.3281V18.9141C24.2396 18.888 24.8411 18.7552 25.3047 18.5156C25.7734 18.276 26.1172 17.9479 26.3359 17.5312C26.5599 17.1094 26.6719 16.6172 26.6719 16.0547C26.6719 15.5182 26.5703 15.0521 26.3672 14.6562C26.1641 14.2552 25.8307 13.9401 25.3672 13.7109C24.9036 13.4818 24.2812 13.3542 23.5 13.3281ZM33.9688 13.1875C35.0625 13.1875 35.888 13.4297 36.4453 13.9141C37.0078 14.3984 37.2891 15.1536 37.2891 16.1797V22H35.9844L35.6328 20.7734H35.5703C35.3255 21.0859 35.0729 21.3438 34.8125 21.5469C34.5521 21.75 34.25 21.901 33.9062 22C33.5677 22.1042 33.1536 22.1562 32.6641 22.1562C32.1484 22.1562 31.6875 22.0625 31.2812 21.875C30.875 21.6823 30.5547 21.3906 30.3203 21C30.0859 20.6094 29.9688 20.1146 29.9688 19.5156C29.9688 18.625 30.2995 17.9557 30.9609 17.5078C31.6276 17.0599 32.6328 16.8125 33.9766 16.7656L35.4766 16.7109V16.2578C35.4766 15.6589 35.3359 15.2318 35.0547 14.9766C34.7786 14.7214 34.388 14.5938 33.8828 14.5938C33.4505 14.5938 33.0312 14.6562 32.625 14.7812C32.2188 14.9062 31.8229 15.0599 31.4375 15.2422L30.8438 13.9453C31.2656 13.7214 31.7448 13.5391 32.2812 13.3984C32.8229 13.2578 33.3854 13.1875 33.9688 13.1875ZM35.4688 17.8672L34.3516 17.9062C33.4349 17.9375 32.7917 18.0938 32.4219 18.375C32.0521 18.6562 31.8672 19.0417 31.8672 19.5312C31.8672 19.9583 31.9948 20.2708 32.25 20.4688C32.5052 20.6615 32.8411 20.7578 33.2578 20.7578C33.8932 20.7578 34.4193 20.5781 34.8359 20.2188C35.2578 19.8542 35.4688 19.3203 35.4688 18.6172V17.8672ZM41.625 13.3516V17.7656C41.625 17.9062 41.6198 18.0859 41.6094 18.3047C41.6042 18.5182 41.5938 18.7422 41.5781 18.9766C41.5625 19.2057 41.5469 19.4167 41.5312 19.6094C41.5156 19.8021 41.5026 19.9453 41.4922 20.0391L45.8438 13.3516H48.0781V22H46.3203V17.6328C46.3203 17.4036 46.3255 17.138 46.3359 16.8359C46.3516 16.5339 46.3672 16.2422 46.3828 15.9609C46.4036 15.6797 46.4167 15.4661 46.4219 15.3203L42.0859 22H39.8594V13.3516H41.625ZM47.4297 9.71094C47.3776 10.2474 47.2318 10.7109 46.9922 11.1016C46.7578 11.487 46.401 11.7839 45.9219 11.9922C45.4427 12.2005 44.8125 12.3047 44.0312 12.3047C43.224 12.3047 42.5859 12.2057 42.1172 12.0078C41.6484 11.8047 41.3099 11.5104 41.1016 11.125C40.8932 10.7344 40.7682 10.263 40.7266 9.71094H42.3984C42.4505 10.2891 42.6016 10.6797 42.8516 10.8828C43.1016 11.0807 43.5052 11.1797 44.0625 11.1797C44.5417 11.1797 44.9245 11.0729 45.2109 10.8594C45.5026 10.6458 45.6771 10.263 45.7344 9.71094H47.4297ZM57.8359 22H55.9844V14.7891H53.5859C53.4818 16.1016 53.3516 17.224 53.1953 18.1562C53.0391 19.0885 52.8438 19.849 52.6094 20.4375C52.375 21.0208 52.0859 21.4479 51.7422 21.7188C51.3984 21.9896 50.9844 22.125 50.5 22.125C50.2865 22.125 50.0938 22.1094 49.9219 22.0781C49.75 22.0521 49.5964 22.0104 49.4609 21.9531V20.5078C49.5495 20.5391 49.6458 20.5651 49.75 20.5859C49.8542 20.6068 49.9609 20.6172 50.0703 20.6172C50.263 20.6172 50.4401 20.5391 50.6016 20.3828C50.7682 20.2214 50.9219 19.9688 51.0625 19.625C51.2031 19.2812 51.3307 18.8281 51.4453 18.2656C51.5599 17.6979 51.6641 17.0104 51.7578 16.2031C51.8516 15.3906 51.9349 14.4401 52.0078 13.3516H57.8359V22Z" fill="#AFAFAF"/>
<path d="M222 14L226.5 18L231 14" stroke="#AFAFAF" stroke-linecap="round"/>
</svg>
