<svg width="149" height="32" viewBox="0 0 149 32" fill="none" xmlns="http://www.w3.org/2000/svg">
<rect width="149" height="32" rx="16" fill="#EB5E28"/>
<path d="M50.3672 12.0078C49.8203 12.0078 49.3307 12.1068 48.8984 12.3047C48.4714 12.5026 48.1094 12.7891 47.8125 13.1641C47.5156 13.5339 47.2891 13.9844 47.1328 14.5156C46.9766 15.0417 46.8984 15.6354 46.8984 16.2969C46.8984 17.1823 47.0234 17.9453 47.2734 18.5859C47.5234 19.2214 47.9036 19.7109 48.4141 20.0547C48.9245 20.3932 49.5703 20.5625 50.3516 20.5625C50.8359 20.5625 51.3073 20.5156 51.7656 20.4219C52.224 20.3281 52.6979 20.2005 53.1875 20.0391V21.6328C52.724 21.8151 52.2552 21.9479 51.7812 22.0312C51.3073 22.1146 50.7604 22.1562 50.1406 22.1562C48.974 22.1562 48.0052 21.9141 47.2344 21.4297C46.4688 20.9453 45.8958 20.263 45.5156 19.3828C45.1406 18.5026 44.9531 17.4714 44.9531 16.2891C44.9531 15.4245 45.0729 14.6328 45.3125 13.9141C45.5521 13.1953 45.901 12.5755 46.3594 12.0547C46.8177 11.5286 47.3828 11.125 48.0547 10.8438C48.7318 10.5573 49.5052 10.4141 50.375 10.4141C50.9479 10.4141 51.5104 10.4792 52.0625 10.6094C52.6198 10.7344 53.1354 10.9141 53.6094 11.1484L52.9531 12.6953C52.5573 12.5078 52.1432 12.3464 51.7109 12.2109C51.2786 12.0755 50.8307 12.0078 50.3672 12.0078ZM62.5703 22H60.7188V14.7891H58.3203C58.2161 16.1016 58.0859 17.224 57.9297 18.1562C57.7734 19.0885 57.5781 19.849 57.3438 20.4375C57.1094 21.0208 56.8203 21.4479 56.4766 21.7188C56.1328 21.9896 55.7188 22.125 55.2344 22.125C55.0208 22.125 54.8281 22.1094 54.6562 22.0781C54.4844 22.0521 54.3307 22.0104 54.1953 21.9531V20.5078C54.2839 20.5391 54.3802 20.5651 54.4844 20.5859C54.5885 20.6068 54.6953 20.6172 54.8047 20.6172C54.9974 20.6172 55.1745 20.5391 55.3359 20.3828C55.5026 20.2214 55.6562 19.9688 55.7969 19.625C55.9375 19.2812 56.0651 18.8281 56.1797 18.2656C56.2943 17.6979 56.3984 17.0104 56.4922 16.2031C56.5859 15.3906 56.6693 14.4401 56.7422 13.3516H62.5703V22ZM68.5938 13.1875C69.6875 13.1875 70.513 13.4297 71.0703 13.9141C71.6328 14.3984 71.9141 15.1536 71.9141 16.1797V22H70.6094L70.2578 20.7734H70.1953C69.9505 21.0859 69.6979 21.3438 69.4375 21.5469C69.1771 21.75 68.875 21.901 68.5312 22C68.1927 22.1042 67.7786 22.1562 67.2891 22.1562C66.7734 22.1562 66.3125 22.0625 65.9062 21.875C65.5 21.6823 65.1797 21.3906 64.9453 21C64.7109 20.6094 64.5938 20.1146 64.5938 19.5156C64.5938 18.625 64.9245 17.9557 65.5859 17.5078C66.2526 17.0599 67.2578 16.8125 68.6016 16.7656L70.1016 16.7109V16.2578C70.1016 15.6589 69.9609 15.2318 69.6797 14.9766C69.4036 14.7214 69.013 14.5938 68.5078 14.5938C68.0755 14.5938 67.6562 14.6562 67.25 14.7812C66.8438 14.9062 66.4479 15.0599 66.0625 15.2422L65.4688 13.9453C65.8906 13.7214 66.3698 13.5391 66.9062 13.3984C67.4479 13.2578 68.0104 13.1875 68.5938 13.1875ZM70.0938 17.8672L68.9766 17.9062C68.0599 17.9375 67.4167 18.0938 67.0469 18.375C66.6771 18.6562 66.4922 19.0417 66.4922 19.5312C66.4922 19.9583 66.6198 20.2708 66.875 20.4688C67.1302 20.6615 67.4661 20.7578 67.8828 20.7578C68.5182 20.7578 69.0443 20.5781 69.4609 20.2188C69.8828 19.8542 70.0938 19.3203 70.0938 18.6172V17.8672ZM76.25 13.3516V17.7656C76.25 17.9062 76.2448 18.0859 76.2344 18.3047C76.2292 18.5182 76.2188 18.7422 76.2031 18.9766C76.1875 19.2057 76.1719 19.4167 76.1562 19.6094C76.1406 19.8021 76.1276 19.9453 76.1172 20.0391L80.4688 13.3516H82.7031V22H80.9453V17.6328C80.9453 17.4036 80.9505 17.138 80.9609 16.8359C80.9766 16.5339 80.9922 16.2422 81.0078 15.9609C81.0286 15.6797 81.0417 15.4661 81.0469 15.3203L76.7109 22H74.4844V13.3516H76.25ZM82.0547 9.71094C82.0026 10.2474 81.8568 10.7109 81.6172 11.1016C81.3828 11.487 81.026 11.7839 80.5469 11.9922C80.0677 12.2005 79.4375 12.3047 78.6562 12.3047C77.849 12.3047 77.2109 12.2057 76.7422 12.0078C76.2734 11.8047 75.9349 11.5104 75.7266 11.125C75.5182 10.7344 75.3932 10.263 75.3516 9.71094H77.0234C77.0755 10.2891 77.2266 10.6797 77.4766 10.8828C77.7266 11.0807 78.1302 11.1797 78.6875 11.1797C79.1667 11.1797 79.5495 11.0729 79.8359 10.8594C80.1276 10.6458 80.3021 10.263 80.3594 9.71094H82.0547ZM92.4062 13.3516V20.5781H93.6562V25.0469H91.9609V22H85.9922V25.0469H84.2969V20.5781H85C85.4375 19.9427 85.8021 19.2344 86.0938 18.4531C86.3906 17.6719 86.6198 16.849 86.7812 15.9844C86.9479 15.1146 87.0521 14.237 87.0938 13.3516H92.4062ZM90.5859 14.7578H88.6719C88.6094 15.4609 88.5026 16.1615 88.3516 16.8594C88.2005 17.5521 88.0052 18.2161 87.7656 18.8516C87.5312 19.4818 87.25 20.0573 86.9219 20.5781H90.5859V14.7578ZM94.5156 18.4844V16.9297H98.5469V18.4844H94.5156ZM112.664 13.3516V22H100.422V13.3516H102.258V20.5547H105.617V13.3516H107.461V20.5547H110.828V13.3516H112.664ZM122.953 17.6562C122.953 18.375 122.859 19.013 122.672 19.5703C122.484 20.1276 122.211 20.599 121.852 20.9844C121.492 21.3646 121.06 21.6562 120.555 21.8594C120.049 22.0573 119.479 22.1562 118.844 22.1562C118.25 22.1562 117.706 22.0573 117.211 21.8594C116.716 21.6562 116.286 21.3646 115.922 20.9844C115.562 20.599 115.284 20.1276 115.086 19.5703C114.888 19.013 114.789 18.375 114.789 17.6562C114.789 16.7031 114.953 15.8958 115.281 15.2344C115.615 14.5677 116.089 14.0599 116.703 13.7109C117.318 13.362 118.049 13.1875 118.898 13.1875C119.695 13.1875 120.398 13.362 121.008 13.7109C121.617 14.0599 122.094 14.5677 122.438 15.2344C122.781 15.901 122.953 16.7083 122.953 17.6562ZM116.68 17.6562C116.68 18.2865 116.755 18.8255 116.906 19.2734C117.062 19.7214 117.302 20.0651 117.625 20.3047C117.948 20.5391 118.365 20.6562 118.875 20.6562C119.385 20.6562 119.802 20.5391 120.125 20.3047C120.448 20.0651 120.685 19.7214 120.836 19.2734C120.987 18.8255 121.062 18.2865 121.062 17.6562C121.062 17.026 120.987 16.4922 120.836 16.0547C120.685 15.612 120.448 15.276 120.125 15.0469C119.802 14.8125 119.383 14.6953 118.867 14.6953C118.107 14.6953 117.552 14.9505 117.203 15.4609C116.854 15.9714 116.68 16.7031 116.68 17.6562ZM123.758 13.3516H125.758L127.531 18.2891C127.609 18.513 127.68 18.7344 127.742 18.9531C127.81 19.1667 127.867 19.3776 127.914 19.5859C127.966 19.7943 128.008 20.0026 128.039 20.2109H128.086C128.138 19.9401 128.211 19.638 128.305 19.3047C128.404 18.9661 128.513 18.6276 128.633 18.2891L130.336 13.3516H132.312L128.602 23.1875C128.388 23.75 128.125 24.2292 127.812 24.625C127.505 25.026 127.141 25.3281 126.719 25.5312C126.297 25.7396 125.815 25.8438 125.273 25.8438C125.013 25.8438 124.786 25.8281 124.594 25.7969C124.401 25.7708 124.237 25.7422 124.102 25.7109V24.2422C124.211 24.2682 124.349 24.2917 124.516 24.3125C124.682 24.3333 124.854 24.3438 125.031 24.3438C125.359 24.3438 125.643 24.2786 125.883 24.1484C126.122 24.0182 126.326 23.8333 126.492 23.5938C126.659 23.3594 126.797 23.0911 126.906 22.7891L127.211 21.9766L123.758 13.3516Z" fill="#FBFBFB"/>
<path fill-rule="evenodd" clip-rule="evenodd" d="M22.1168 25.2125C23.3334 25.7375 24.6278 26 26 26C27.3833 26 28.6833 25.7375 29.9 25.2125C31.1167 24.6875 32.175 23.9722 33.075 23.0667C33.975 22.1611 34.6875 21.0999 35.2125 19.8832C35.7375 18.6666 36 17.3722 36 16C36 14.6167 35.7375 13.3167 35.2125 12.1C34.6875 10.8833 33.975 9.825 33.075 8.925C32.175 8.025 31.1167 7.3125 29.9 6.7875C28.6833 6.2625 27.3833 6 26 6C24.6278 6 23.3334 6.2625 22.1168 6.7875C20.9001 7.3125 19.8389 8.025 18.9332 8.925C18.0278 9.825 17.3125 10.8833 16.7875 12.1C16.2625 13.3167 16 14.6167 16 16C16 17.3722 16.2625 18.6666 16.7875 19.8832C17.3125 21.0999 18.0278 22.1611 18.9332 23.0667C19.8389 23.9722 20.9001 24.6875 22.1168 25.2125ZM31.9082 21.9C30.2916 23.5222 28.3222 24.3333 26 24.3333C23.6888 24.3333 21.7222 23.5222 20.1 21.9C18.4778 20.2778 17.6667 18.3112 17.6667 16C17.6667 13.6778 18.4778 11.7084 20.1 10.0917C21.7222 8.47508 23.6888 7.66675 26 7.66675C28.3222 7.66675 30.2916 8.47508 31.9082 10.0917C33.5249 11.7084 34.3333 13.6778 34.3333 16C34.3333 18.3112 33.5249 20.2778 31.9082 21.9Z" fill="#FBFBFB"/>
<path d="M23.55 20.3332L30.3333 16L23.55 11.6667V20.3332Z" fill="#FBFBFB"/>
</svg>
