<svg width="32" height="32" viewBox="0 0 32 32" fill="none" xmlns="http://www.w3.org/2000/svg">
<rect width="32" height="32" rx="8" fill="#424242"/>
<path d="M8.92857 25C8.39822 25 7.9442 24.8112 7.56652 24.4335C7.18884 24.0558 7 23.6018 7 23.0715V8.92857C7 8.39822 7.18884 7.9442 7.56652 7.56652C7.9442 7.18884 8.39822 7 8.92857 7H17.2857V8.92857H8.92857V23.0715H23.0715V14.7143H25V23.0715C25 23.6018 24.8112 24.0558 24.4335 24.4335C24.0558 24.8112 23.6018 25 23.0715 25H8.92857ZM10.2143 21.1429H21.7857L17.9286 16L15.0357 19.8572L13.1072 17.2857L10.2143 21.1429ZM21.1429 12.7857V10.8571H19.2143V8.92857H21.1429V7H23.0715V8.92857H25V10.8571H23.0715V12.7857H21.1429Z" fill="#AFAFAF"/>
</svg>
