<svg width="190" height="16" viewBox="0 0 190 16" fill="none" xmlns="http://www.w3.org/2000/svg">
<path d="M7.5874 12.9408V11.4408H10.5874V1.5H7.5874V0L10.5874 0C10.9999 0 11.353 0.146876 11.6468 0.440626C11.9405 0.734376 12.0874 1.0875 12.0874 1.5V11.4408C12.0874 11.8533 11.9405 12.2064 11.6468 12.5002C11.353 12.7939 10.9999 12.9408 10.5874 12.9408H7.5874ZM6.0874 10.0002L5.0249 8.9377L6.7124 7.2502H0.587402V5.7502H6.7124L5.0249 4.0627L6.0874 3.0002L9.5874 6.5002L6.0874 10.0002Z" fill="#FBFBFB"/>
<path d="M183.68 3.9377V9.32051C183.68 9.42467 183.677 9.56009 183.672 9.72676C183.667 9.88822 183.659 10.0627 183.649 10.2502C183.638 10.4325 183.628 10.6096 183.617 10.7814C183.612 10.9481 183.604 11.0861 183.594 11.1955L188.266 3.9377H189.859V12.5002H188.649V7.2502C188.649 7.08353 188.651 6.86999 188.656 6.60957C188.662 6.34915 188.669 6.09395 188.68 5.84395C188.69 5.58874 188.698 5.39082 188.703 5.2502L184.047 12.5002H182.445V3.9377H183.68Z" fill="#FBFBFB"/>
<path d="M173.508 3.9377V9.32051C173.508 9.42467 173.505 9.56009 173.5 9.72676C173.495 9.88822 173.487 10.0627 173.477 10.2502C173.466 10.4325 173.456 10.6096 173.445 10.7814C173.44 10.9481 173.432 11.0861 173.422 11.1955L178.094 3.9377H179.688V12.5002H178.477V7.2502C178.477 7.08353 178.479 6.86999 178.484 6.60957C178.49 6.34915 178.498 6.09395 178.508 5.84395C178.518 5.58874 178.526 5.39082 178.531 5.2502L173.875 12.5002H172.274V3.9377H173.508Z" fill="#FBFBFB"/>
<path d="M170.594 15.4611H169.328V12.5002H162.258V3.9377H163.563V11.3986H168.102V3.9377H169.399V11.4143H170.594V15.4611Z" fill="#FBFBFB"/>
<path d="M156.57 3.79707C157.591 3.79707 158.349 4.02624 158.844 4.48457C159.339 4.9429 159.586 5.67468 159.586 6.67988V12.5002H158.641L158.391 11.2346H158.328C158.089 11.5471 157.839 11.8101 157.578 12.0236C157.318 12.232 157.016 12.3908 156.672 12.5002C156.333 12.6044 155.917 12.6564 155.422 12.6564C154.901 12.6564 154.438 12.5653 154.031 12.383C153.63 12.2007 153.313 11.9247 153.078 11.5549C152.849 11.1851 152.734 10.7163 152.734 10.1486C152.734 9.29447 153.073 8.63822 153.75 8.17988C154.427 7.72155 155.458 7.47155 156.844 7.42988L158.32 7.36738V6.84395C158.32 6.10436 158.162 5.58613 157.844 5.28926C157.526 4.99238 157.078 4.84395 156.5 4.84395C156.052 4.84395 155.625 4.90905 155.219 5.03926C154.813 5.16947 154.427 5.32311 154.063 5.5002L153.664 4.51582C154.05 4.3179 154.492 4.14863 154.992 4.00801C155.492 3.86738 156.018 3.79707 156.57 3.79707ZM158.305 8.28145L157 8.33613C155.932 8.3778 155.18 8.55228 154.742 8.85957C154.305 9.16686 154.086 9.60176 154.086 10.1643C154.086 10.6538 154.234 11.0158 154.531 11.2502C154.828 11.4846 155.221 11.6018 155.711 11.6018C156.471 11.6018 157.094 11.3908 157.578 10.9689C158.063 10.5471 158.305 9.91426 158.305 9.07051V8.28145Z" fill="#FBFBFB"/>
<path d="M151.672 5.03926H148.852V12.5002H147.57V5.03926H144.789V3.9377H151.672V5.03926Z" fill="#FBFBFB"/>
<path d="M137.016 3.9377V7.53145H141.789V3.9377H143.086V12.5002H141.789V8.63301H137.016V12.5002H135.711V3.9377H137.016Z" fill="#FBFBFB"/>
<path d="M130.024 3.78145C130.753 3.78145 131.378 3.9429 131.899 4.26582C132.419 4.58874 132.818 5.04186 133.094 5.6252C133.37 6.20332 133.508 6.8804 133.508 7.65645V8.46113H127.594C127.609 9.46634 127.859 10.232 128.344 10.758C128.828 11.284 129.511 11.5471 130.391 11.5471C130.932 11.5471 131.412 11.4976 131.828 11.3986C132.245 11.2997 132.677 11.1538 133.125 10.9611V12.1018C132.693 12.2945 132.263 12.4351 131.836 12.5236C131.414 12.6122 130.914 12.6564 130.336 12.6564C129.513 12.6564 128.794 12.4898 128.18 12.1564C127.57 11.8179 127.096 11.3231 126.758 10.6721C126.419 10.021 126.25 9.22415 126.25 8.28145C126.25 7.35957 126.404 6.5627 126.711 5.89082C127.024 5.21374 127.461 4.6929 128.024 4.32832C128.591 3.96374 129.258 3.78145 130.024 3.78145ZM130.008 4.84395C129.315 4.84395 128.763 5.07051 128.352 5.52363C127.94 5.97676 127.695 6.60957 127.617 7.42207H132.149C132.143 6.91165 132.063 6.46374 131.906 6.07832C131.755 5.6877 131.524 5.38561 131.211 5.17207C130.899 4.95332 130.498 4.84395 130.008 4.84395Z" fill="#FBFBFB"/>
<path d="M121.195 3.78145C121.836 3.78145 122.391 3.86999 122.859 4.04707C123.328 4.21895 123.69 4.47155 123.945 4.80488C124.201 5.13822 124.328 5.54447 124.328 6.02363C124.328 6.53926 124.188 6.95072 123.906 7.25801C123.625 7.5653 123.237 7.78665 122.742 7.92207V7.98457C123.091 8.07832 123.406 8.21374 123.688 8.39082C123.974 8.5627 124.201 8.79186 124.367 9.07832C124.539 9.35957 124.625 9.71113 124.625 10.133C124.625 10.6122 124.495 11.0445 124.234 11.4299C123.974 11.8101 123.578 12.1096 123.047 12.3283C122.516 12.5471 121.844 12.6564 121.031 12.6564C120.63 12.6564 120.25 12.633 119.891 12.5861C119.531 12.5445 119.206 12.482 118.914 12.3986C118.622 12.3153 118.367 12.2163 118.149 12.1018V10.9221C118.513 11.0992 118.94 11.2554 119.43 11.3908C119.919 11.5262 120.448 11.5939 121.016 11.5939C121.453 11.5939 121.846 11.5445 122.195 11.4455C122.544 11.3413 122.82 11.1773 123.024 10.9533C123.232 10.7242 123.336 10.4247 123.336 10.0549C123.336 9.71634 123.245 9.4377 123.063 9.21895C122.88 8.99499 122.607 8.83092 122.242 8.72676C121.883 8.61738 121.427 8.5627 120.875 8.5627H119.727V7.5002H120.672C121.406 7.5002 121.992 7.39603 122.43 7.1877C122.867 6.97936 123.086 6.6278 123.086 6.13301C123.086 5.70593 122.917 5.38822 122.578 5.17988C122.24 4.96634 121.755 4.85957 121.125 4.85957C120.656 4.85957 120.242 4.90905 119.883 5.00801C119.524 5.10176 119.136 5.23718 118.719 5.41426L118.258 4.3752C118.706 4.17728 119.175 4.02884 119.664 3.92988C120.154 3.83092 120.664 3.78145 121.195 3.78145Z" fill="#FBFBFB"/>
<path d="M113.305 3.78145C114.034 3.78145 114.659 3.9429 115.18 4.26582C115.701 4.58874 116.099 5.04186 116.375 5.6252C116.651 6.20332 116.789 6.8804 116.789 7.65645V8.46113H110.875C110.891 9.46634 111.141 10.232 111.625 10.758C112.109 11.284 112.792 11.5471 113.672 11.5471C114.214 11.5471 114.693 11.4976 115.109 11.3986C115.526 11.2997 115.958 11.1538 116.406 10.9611V12.1018C115.974 12.2945 115.544 12.4351 115.117 12.5236C114.695 12.6122 114.195 12.6564 113.617 12.6564C112.794 12.6564 112.076 12.4898 111.461 12.1564C110.852 11.8179 110.378 11.3231 110.039 10.6721C109.701 10.021 109.531 9.22415 109.531 8.28145C109.531 7.35957 109.685 6.5627 109.992 5.89082C110.305 5.21374 110.742 4.6929 111.305 4.32832C111.872 3.96374 112.539 3.78145 113.305 3.78145ZM113.289 4.84395C112.596 4.84395 112.044 5.07051 111.633 5.52363C111.221 5.97676 110.977 6.60957 110.899 7.42207H115.43C115.425 6.91165 115.344 6.46374 115.188 6.07832C115.037 5.6877 114.805 5.38561 114.492 5.17207C114.18 4.95332 113.779 4.84395 113.289 4.84395Z" fill="#FBFBFB"/>
<path d="M104.234 3.78145C105.302 3.78145 106.154 4.14863 106.789 4.88301C107.425 5.61738 107.742 6.72155 107.742 8.19551C107.742 9.16947 107.596 9.98717 107.305 10.6486C107.013 11.3101 106.602 11.8101 106.07 12.1486C105.544 12.4872 104.922 12.6564 104.203 12.6564C103.75 12.6564 103.352 12.5965 103.008 12.4768C102.664 12.357 102.37 12.1955 102.125 11.9924C101.88 11.7893 101.677 11.5679 101.516 11.3283H101.422C101.438 11.5314 101.456 11.7762 101.477 12.0627C101.503 12.3492 101.516 12.5992 101.516 12.8127V16H100.211V3.9377H101.281L101.453 5.20332H101.516C101.682 4.9429 101.886 4.70593 102.125 4.49238C102.365 4.27363 102.656 4.10176 103 3.97676C103.349 3.84655 103.761 3.78145 104.234 3.78145ZM104.008 4.8752C103.414 4.8752 102.935 4.98978 102.57 5.21895C102.211 5.44811 101.948 5.79186 101.781 6.2502C101.615 6.70332 101.526 7.27363 101.516 7.96113V8.21113C101.516 8.93509 101.594 9.54707 101.75 10.0471C101.912 10.5471 102.175 10.9273 102.539 11.1877C102.909 11.4481 103.404 11.5783 104.024 11.5783C104.555 11.5783 104.997 11.4351 105.352 11.1486C105.706 10.8622 105.969 10.4637 106.141 9.95332C106.318 9.4377 106.406 8.84655 106.406 8.17988C106.406 7.16947 106.208 6.36738 105.813 5.77363C105.422 5.17468 104.82 4.8752 104.008 4.8752Z" fill="#FBFBFB"/>
<path d="M97.461 3.9377V12.5002H96.1563V5.05488H91.5938V12.5002H90.2892V3.9377H97.461Z" fill="#FBFBFB"/>
<path d="M84.4376 5.03926H81.6173V12.5002H80.336V5.03926H77.5548V3.9377H84.4376V5.03926Z" fill="#FBFBFB"/>
<path d="M72.8282 3.78145C73.8959 3.78145 74.7475 4.14863 75.3829 4.88301C76.0183 5.61738 76.336 6.72155 76.336 8.19551C76.336 9.16947 76.1902 9.98717 75.8985 10.6486C75.6069 11.3101 75.1954 11.8101 74.6642 12.1486C74.1381 12.4872 73.5157 12.6564 72.797 12.6564C72.3438 12.6564 71.9454 12.5965 71.6017 12.4768C71.2579 12.357 70.9636 12.1955 70.7188 11.9924C70.474 11.7893 70.2709 11.5679 70.1095 11.3283H70.0157C70.0313 11.5314 70.0496 11.7762 70.0704 12.0627C70.0964 12.3492 70.1095 12.5992 70.1095 12.8127V16H68.8048V3.9377H69.8751L70.047 5.20332H70.1095C70.2761 4.9429 70.4793 4.70593 70.7188 4.49238C70.9584 4.27363 71.2501 4.10176 71.5938 3.97676C71.9428 3.84655 72.3543 3.78145 72.8282 3.78145ZM72.6017 4.8752C72.0079 4.8752 71.5287 4.98978 71.1642 5.21895C70.8048 5.44811 70.5418 5.79186 70.3751 6.2502C70.2084 6.70332 70.1199 7.27363 70.1095 7.96113V8.21113C70.1095 8.93509 70.1876 9.54707 70.3438 10.0471C70.5053 10.5471 70.7683 10.9273 71.1329 11.1877C71.5027 11.4481 71.9975 11.5783 72.6173 11.5783C73.1485 11.5783 73.5912 11.4351 73.9454 11.1486C74.2996 10.8622 74.5626 10.4637 74.7345 9.95332C74.9115 9.4377 75.0001 8.84655 75.0001 8.17988C75.0001 7.16947 74.8022 6.36738 74.4063 5.77363C74.0157 5.17468 73.4142 4.8752 72.6017 4.8752Z" fill="#FBFBFB"/>
<path d="M66.5626 8.20332C66.5626 8.90645 66.4714 9.53405 66.2892 10.0861C66.1069 10.6382 65.8438 11.1044 65.5001 11.4846C65.1563 11.8648 64.7397 12.1564 64.2501 12.3596C63.7657 12.5575 63.2162 12.6564 62.6017 12.6564C62.0287 12.6564 61.5027 12.5575 61.0235 12.3596C60.5496 12.1564 60.1381 11.8648 59.7892 11.4846C59.4454 11.1044 59.1772 10.6382 58.9845 10.0861C58.797 9.53405 58.7032 8.90645 58.7032 8.20332C58.7032 7.26582 58.8621 6.46895 59.1798 5.8127C59.4975 5.15124 59.9506 4.64863 60.5392 4.30488C61.1329 3.95593 61.8386 3.78145 62.6563 3.78145C63.4376 3.78145 64.1199 3.95593 64.7032 4.30488C65.2918 4.65384 65.7475 5.15905 66.0704 5.82051C66.3985 6.47676 66.5626 7.27103 66.5626 8.20332ZM60.047 8.20332C60.047 8.89082 60.1381 9.48717 60.3204 9.99238C60.5027 10.4976 60.7839 10.8882 61.1642 11.1643C61.5444 11.4403 62.0339 11.5783 62.6329 11.5783C63.2267 11.5783 63.7136 11.4403 64.0938 11.1643C64.4793 10.8882 64.7631 10.4976 64.9454 9.99238C65.1277 9.48717 65.2188 8.89082 65.2188 8.20332C65.2188 7.52103 65.1277 6.93249 64.9454 6.4377C64.7631 5.9377 64.4819 5.55228 64.1017 5.28145C63.7214 5.01061 63.2293 4.8752 62.6251 4.8752C61.7345 4.8752 61.0808 5.16947 60.6642 5.75801C60.2527 6.34655 60.047 7.16165 60.047 8.20332Z" fill="#FBFBFB"/>
<path d="M56.4298 3.9377V12.5002H55.1251V5.05488H50.5626V12.5002H49.2579V3.9377H56.4298Z" fill="#FBFBFB"/>
<path d="M46.5626 3.9377V12.5002H45.3907V6.92207C45.3907 6.6929 45.3959 6.46113 45.4063 6.22676C45.422 5.98718 45.4402 5.74759 45.461 5.50801H45.4142L42.5704 12.5002H41.4688L38.6954 5.50801H38.6485C38.6642 5.74759 38.6746 5.98718 38.6798 6.22676C38.6902 6.46113 38.6954 6.70853 38.6954 6.96895V12.5002H37.5157V3.9377H39.2579L42.0235 10.9377L44.8282 3.9377H46.5626Z" fill="#FBFBFB"/>
<path d="M25.5782 1.07832H26.8204V7.67988C26.8204 7.92988 26.8178 8.20332 26.8126 8.5002C26.8074 8.79186 26.7996 9.07832 26.7892 9.35957C26.7787 9.64082 26.7657 9.89603 26.7501 10.1252C26.7397 10.3544 26.7293 10.5314 26.7188 10.6564H26.7813L33.1407 1.07832H34.6017V12.5002H33.3595V5.97676C33.3595 5.70072 33.3647 5.40905 33.3751 5.10176C33.3855 4.78926 33.3959 4.48718 33.4063 4.19551C33.422 3.90384 33.4376 3.64342 33.4532 3.41426C33.4688 3.17988 33.4793 3.0002 33.4845 2.8752H33.4142L27.047 12.5002H25.5782V1.07832Z" fill="#FBFBFB"/>
</svg>
