<svg width="32" height="32" viewBox="0 0 32 32" fill="none" xmlns="http://www.w3.org/2000/svg">
<rect width="32" height="32" rx="8" fill="#424242"/>
<path d="M12.8181 24C11.2019 24 9.82816 23.4343 8.69685 22.303C7.56553 21.1717 6.99988 19.798 6.99988 18.1818C6.99988 16.5657 7.56553 15.1919 8.69685 14.0606C9.82816 12.9293 11.2019 12.3636 12.8181 12.3636H20.2726L17.4544 9.54545L18.9999 8L24.4544 13.4545L18.9999 18.9091L17.4544 17.3636L20.2726 14.5455H12.8181C11.808 14.5455 10.9494 14.899 10.2423 15.6061C9.53523 16.3131 9.1817 17.1717 9.1817 18.1818C9.1817 19.1919 9.53523 20.0505 10.2423 20.7576C10.9494 21.4646 11.808 21.8182 12.8181 21.8182H21.5453V24H12.8181Z" fill="#AFAFAF"/>
</svg>
