<svg width="32" height="32" viewBox="0 0 32 32" fill="none" xmlns="http://www.w3.org/2000/svg">
<rect width="32" height="32" rx="8" fill="#424242"/>
<path d="M9.90903 24V21.8182H18.6363C19.6464 21.8182 20.505 21.4646 21.2121 20.7576C21.9191 20.0505 22.2727 19.1919 22.2727 18.1818C22.2727 17.1717 21.9191 16.3131 21.2121 15.6061C20.505 14.899 19.6464 14.5455 18.6363 14.5455H11.1818L13.9999 17.3636L12.4545 18.9091L6.99994 13.4545L12.4545 8L13.9999 9.54545L11.1818 12.3636H18.6363C20.2525 12.3636 21.6262 12.9293 22.7575 14.0606C23.8888 15.1919 24.4545 16.5657 24.4545 18.1818C24.4545 19.798 23.8888 21.1717 22.7575 22.303C21.6262 23.4343 20.2525 24 18.6363 24H9.90903Z" fill="#AFAFAF"/>
</svg>
