<svg width="121" height="32" viewBox="0 0 121 32" fill="none" xmlns="http://www.w3.org/2000/svg">
<rect width="121" height="32" rx="8" fill="#424242"/>
<path d="M21.2578 15.6641H24.3828V17.0547H21.2578V20.2109H19.8672V17.0547H16.75V15.6641H19.8672V12.4766H21.2578V15.6641ZM39.0938 10.5781V20.3984H40.5547V25.1562H38.75V22H31.2031V25.1562H29.3984V20.3984H30.2812C30.625 19.7682 30.9505 19.0807 31.2578 18.3359C31.5651 17.5859 31.8464 16.7943 32.1016 15.9609C32.3568 15.1276 32.5729 14.2604 32.75 13.3594C32.9323 12.4531 33.0677 11.526 33.1562 10.5781H39.0938ZM37.2266 12.1797H34.7031C34.6406 12.7786 34.5339 13.4349 34.3828 14.1484C34.237 14.8568 34.0547 15.5807 33.8359 16.3203C33.6172 17.0599 33.3724 17.7786 33.1016 18.4766C32.8359 19.1745 32.5547 19.8151 32.2578 20.3984H37.2266V12.1797ZM49.875 17.6562C49.875 18.375 49.7812 19.013 49.5938 19.5703C49.4062 20.1276 49.1328 20.599 48.7734 20.9844C48.4141 21.3646 47.9818 21.6562 47.4766 21.8594C46.9714 22.0573 46.401 22.1562 45.7656 22.1562C45.1719 22.1562 44.6276 22.0573 44.1328 21.8594C43.638 21.6562 43.2083 21.3646 42.8438 20.9844C42.4844 20.599 42.2057 20.1276 42.0078 19.5703C41.8099 19.013 41.7109 18.375 41.7109 17.6562C41.7109 16.7031 41.875 15.8958 42.2031 15.2344C42.5365 14.5677 43.0104 14.0599 43.625 13.7109C44.2396 13.362 44.9714 13.1875 45.8203 13.1875C46.6172 13.1875 47.3203 13.362 47.9297 13.7109C48.5391 14.0599 49.0156 14.5677 49.3594 15.2344C49.7031 15.901 49.875 16.7083 49.875 17.6562ZM43.6016 17.6562C43.6016 18.2865 43.6771 18.8255 43.8281 19.2734C43.9844 19.7214 44.224 20.0651 44.5469 20.3047C44.8698 20.5391 45.2865 20.6562 45.7969 20.6562C46.3073 20.6562 46.724 20.5391 47.0469 20.3047C47.3698 20.0651 47.6068 19.7214 47.7578 19.2734C47.9089 18.8255 47.9844 18.2865 47.9844 17.6562C47.9844 17.026 47.9089 16.4922 47.7578 16.0547C47.6068 15.612 47.3698 15.276 47.0469 15.0469C46.724 14.8125 46.3047 14.6953 45.7891 14.6953C45.0286 14.6953 44.474 14.9505 44.125 15.4609C43.776 15.9714 43.6016 16.7031 43.6016 17.6562ZM51.4922 16.8125C51.4922 15.5573 51.6302 14.4896 51.9062 13.6094C52.1823 12.7292 52.6172 12.0234 53.2109 11.4922C53.8047 10.9609 54.5755 10.599 55.5234 10.4062C56.138 10.2656 56.763 10.1458 57.3984 10.0469C58.0339 9.94792 58.6693 9.85156 59.3047 9.75781L59.5547 11.375C59.2578 11.4115 58.9401 11.4557 58.6016 11.5078C58.263 11.5547 57.9219 11.6042 57.5781 11.6562C57.2396 11.7083 56.9141 11.763 56.6016 11.8203C56.2943 11.8724 56.0182 11.9245 55.7734 11.9766C55.2839 12.0807 54.8698 12.2526 54.5312 12.4922C54.1979 12.7266 53.9375 13.0703 53.75 13.5234C53.5625 13.9766 53.4505 14.5807 53.4141 15.3359H53.5156C53.6562 15.1224 53.8516 14.9089 54.1016 14.6953C54.3516 14.4818 54.6536 14.3047 55.0078 14.1641C55.3672 14.0182 55.776 13.9453 56.2344 13.9453C56.9531 13.9453 57.5625 14.0964 58.0625 14.3984C58.5677 14.7005 58.9505 15.138 59.2109 15.7109C59.4766 16.2839 59.6094 16.974 59.6094 17.7812C59.6094 18.7448 59.4375 19.5521 59.0938 20.2031C58.7552 20.849 58.2812 21.3359 57.6719 21.6641C57.0625 21.9922 56.3516 22.1562 55.5391 22.1562C54.9141 22.1562 54.3516 22.0391 53.8516 21.8047C53.3568 21.5703 52.9323 21.2266 52.5781 20.7734C52.2292 20.3151 51.9609 19.7552 51.7734 19.0938C51.5859 18.4271 51.4922 17.6667 51.4922 16.8125ZM55.6641 20.6484C56.0807 20.6484 56.4401 20.5599 56.7422 20.3828C57.0495 20.2057 57.2865 19.9193 57.4531 19.5234C57.625 19.1276 57.7109 18.6042 57.7109 17.9531C57.7109 17.151 57.5651 16.5208 57.2734 16.0625C56.987 15.599 56.513 15.3672 55.8516 15.3672C55.4453 15.3672 55.0729 15.4583 54.7344 15.6406C54.3958 15.8229 54.1094 16.0365 53.875 16.2812C53.6406 16.5208 53.474 16.7318 53.375 16.9141C53.375 17.388 53.4089 17.8464 53.4766 18.2891C53.5495 18.7318 53.6693 19.1328 53.8359 19.4922C54.0078 19.8464 54.2422 20.1276 54.5391 20.3359C54.8359 20.5443 55.2109 20.6484 55.6641 20.6484ZM65.1094 13.1875C66.2031 13.1875 67.0286 13.4297 67.5859 13.9141C68.1484 14.3984 68.4297 15.1536 68.4297 16.1797V22H67.125L66.7734 20.7734H66.7109C66.4661 21.0859 66.2135 21.3438 65.9531 21.5469C65.6927 21.75 65.3906 21.901 65.0469 22C64.7083 22.1042 64.2943 22.1562 63.8047 22.1562C63.2891 22.1562 62.8281 22.0625 62.4219 21.875C62.0156 21.6823 61.6953 21.3906 61.4609 21C61.2266 20.6094 61.1094 20.1146 61.1094 19.5156C61.1094 18.625 61.4401 17.9557 62.1016 17.5078C62.7682 17.0599 63.7734 16.8125 65.1172 16.7656L66.6172 16.7109V16.2578C66.6172 15.6589 66.4766 15.2318 66.1953 14.9766C65.9193 14.7214 65.5286 14.5938 65.0234 14.5938C64.5911 14.5938 64.1719 14.6562 63.7656 14.7812C63.3594 14.9062 62.9635 15.0599 62.5781 15.2422L61.9844 13.9453C62.4062 13.7214 62.8854 13.5391 63.4219 13.3984C63.9635 13.2578 64.526 13.1875 65.1094 13.1875ZM66.6094 17.8672L65.4922 17.9062C64.5755 17.9375 63.9323 18.0938 63.5625 18.375C63.1927 18.6562 63.0078 19.0417 63.0078 19.5312C63.0078 19.9583 63.1354 20.2708 63.3906 20.4688C63.6458 20.6615 63.9818 20.7578 64.3984 20.7578C65.0339 20.7578 65.5599 20.5781 65.9766 20.2188C66.3984 19.8542 66.6094 19.3203 66.6094 18.6172V17.8672ZM78.2734 15.5703C78.2734 16.0703 78.1198 16.4792 77.8125 16.7969C77.5104 17.1094 77.0938 17.3151 76.5625 17.4141V17.4766C77.1302 17.5495 77.6042 17.75 77.9844 18.0781C78.3646 18.4062 78.5547 18.862 78.5547 19.4453C78.5547 19.9401 78.4297 20.3802 78.1797 20.7656C77.9349 21.1458 77.5443 21.4479 77.0078 21.6719C76.4766 21.8906 75.7812 22 74.9219 22H71V13.3516H74.9062C75.5521 13.3516 76.1276 13.4219 76.6328 13.5625C77.1432 13.7031 77.5443 13.9349 77.8359 14.2578C78.1276 14.5807 78.2734 15.0182 78.2734 15.5703ZM76.6406 19.3828C76.6406 18.9557 76.4766 18.6484 76.1484 18.4609C75.8255 18.2734 75.3516 18.1797 74.7266 18.1797H72.8438V20.6484H74.7656C75.349 20.6484 75.8073 20.5521 76.1406 20.3594C76.474 20.1615 76.6406 19.8359 76.6406 19.3828ZM76.4062 15.7344C76.4062 15.3958 76.2786 15.1458 76.0234 14.9844C75.7682 14.8177 75.3672 14.7344 74.8203 14.7344H72.8438V16.8281H74.5703C75.1745 16.8281 75.6302 16.7422 75.9375 16.5703C76.25 16.3932 76.4062 16.1146 76.4062 15.7344ZM82.3906 13.3516V17.7656C82.3906 17.9062 82.3854 18.0859 82.375 18.3047C82.3698 18.5182 82.3594 18.7422 82.3438 18.9766C82.3281 19.2057 82.3125 19.4167 82.2969 19.6094C82.2812 19.8021 82.2682 19.9453 82.2578 20.0391L86.6094 13.3516H88.8438V22H87.0859V17.6328C87.0859 17.4036 87.0911 17.138 87.1016 16.8359C87.1172 16.5339 87.1328 16.2422 87.1484 15.9609C87.1693 15.6797 87.1823 15.4661 87.1875 15.3203L82.8516 22H80.625V13.3516H82.3906ZM98.0156 14.7969H95.1719V22H93.3438V14.7969H90.5156V13.3516H98.0156V14.7969ZM101.531 16.8047H103.68C104.492 16.8047 105.164 16.8984 105.695 17.0859C106.232 17.2682 106.633 17.5443 106.898 17.9141C107.164 18.2839 107.297 18.7474 107.297 19.3047C107.297 19.8516 107.172 20.3281 106.922 20.7344C106.672 21.1354 106.281 21.4479 105.75 21.6719C105.224 21.8906 104.536 22 103.688 22H99.6875V13.3516H101.531V16.8047ZM105.453 19.3516C105.453 18.9193 105.292 18.6146 104.969 18.4375C104.646 18.2552 104.185 18.1641 103.586 18.1641H101.531V20.6484H103.602C104.148 20.6484 104.594 20.5495 104.938 20.3516C105.281 20.1484 105.453 19.8151 105.453 19.3516Z" fill="#AFAFAF"/>
</svg>
