<svg width="32" height="32" viewBox="0 0 32 32" fill="none" xmlns="http://www.w3.org/2000/svg">
<rect width="32" height="32" rx="8" fill="#424242"/>
<path d="M11.281 27.4C10.7397 27.4 10.2762 27.165 9.89074 26.695C9.50523 26.225 9.31248 25.66 9.31248 25V9.00002H8.00012V6.60002H13.2496V5.00002H18.499V6.60002H23.7484V9.00002H22.4361V24.9857C22.4361 25.6619 22.2433 26.2334 21.8578 26.7C21.4723 27.1667 21.0089 27.4 20.4675 27.4H11.281ZM20.4675 9.00002H11.281V25H20.4675V9.00002ZM13.2496 22.6H15.2181V11.4H13.2496V22.6ZM16.5305 22.6H18.499V11.4H16.5305V22.6Z" fill="#EB5E28"/>
</svg>
